<?xml version="1.0" encoding="utf-8"?>
<!-- Generator: Adobe Illustrator 22.0.1, SVG Export Plug-In . SVG Version: 6.00 Build 0)  -->
<svg version="1.1" id="Layer_1" xmlns="http://www.w3.org/2000/svg" xmlns:xlink="http://www.w3.org/1999/xlink" x="0px" y="0px"
	 viewBox="0 0 1440 2520" style="enable-background:new 0 0 1440 2520;" xml:space="preserve">
<style type="text/css">
	.st0{fill:#662D91;}
	.st1{fill:#93278F;}
	.st2{fill:#FF7BAC;}
	.st3{fill:#FFAAAC;}
	.st4{fill:#FF00FF;}
	.st5{fill:#FFA7AC;}
	.st6{fill:#FF90FF;}
</style>
<path class="st0" d="M567.9,741.3c-35.1-13.2-71.1-21.6-106.5-3.2c-2.4,1.6-3.9,4.3-6.1,4.9c-11.8,4.3-20.8,12-28.7,20.3
	c-0.3,2.1-0.6,4.2-1.1,6.3c0.5-2.1,0.9-4.2,1.1-6.3c-1.7,1.8-3.4,3.6-5.1,5.5c1.6-1.8,3.3-3.7,5.1-5.5c3.8-29.2-13.2-59.1-36-73.2
	c-45.4-27.6-111.8-2.2-131.9,46.7c-29,72.7-26.3,154.9,26.1,218.5c35.4,42.8,78.4,98.2,66.3,153.7c1.4-3,3.1-5.9,5.3-8.6
	c1.6-2.7,1.2-5.9,1.8-8.8c6.5-17,19.1-28.8,33.6-40.1c12-8.8,20.6-21.3,33.4-28.9c50.9-29.5,101.1-50.9,150.4-82.8
	c35.2-22.5,56.4-62,50.9-105C621.9,797.2,605.9,755.2,567.9,741.3z"/>
<path class="st1" d="M1153.9,808.6c-28.6,7.6-55.5,18.9-69.7,46.9c-0.8,2.1-0.5,4.6-1.7,5.9c-5.6,8.2-7.8,17.2-9.1,26.2
	c0.8,1.5,1.5,3,2.2,4.6c-0.6-1.6-1.4-3.1-2.2-4.6c-0.3,2-0.5,3.9-0.7,5.8c0.2-1.9,0.4-3.9,0.7-5.8c-11-20.5-35.6-31.8-56.8-30.4
	c-41.8,3.2-72.7,50-63,90.6c14.8,59.9,54.4,111.3,117.2,128c42.3,11.1,95.4,26.9,113.2,68c-0.5-2.6-0.7-5.2-0.6-7.9
	c-0.3-2.5-1.9-4.3-2.9-6.5c-3.7-13.9-1-27.2,3.1-41.2c3.6-11.1,3.4-23.2,8.1-33.9c19-42.3,41.4-79.1,58.3-122.2
	c12.2-30.6,7.6-65.7-15.7-90.7C1214.2,819.5,1184.6,800,1153.9,808.6z"/>
<path class="st1" d="M77.9,1280.6c-28.6,7.6-55.5,18.9-69.7,46.9c-0.8,2.1-0.5,4.6-1.7,5.9c-5.6,8.2-7.8,17.2-9.1,26.2
	c0.8,1.5,1.5,3,2.2,4.6c-0.6-1.6-1.4-3.1-2.2-4.6c-0.3,2-0.5,3.9-0.7,5.8c0.2-1.9,0.4-3.9,0.7-5.8c-11-20.5-35.6-31.8-56.8-30.4
	c-41.8,3.2-72.7,50-63,90.6c14.8,59.9,54.4,111.3,117.2,128c42.3,11.1,95.4,26.9,113.2,68c-0.5-2.6-0.7-5.2-0.6-7.9
	c-0.3-2.5-1.9-4.3-2.9-6.5c-3.7-13.9-1-27.2,3.1-41.2c3.6-11.1,3.4-23.2,8.1-33.9c19-42.3,41.4-79.1,58.3-122.2
	c12.2-30.6,7.6-65.7-15.7-90.7C138.2,1291.5,108.6,1272,77.9,1280.6z"/>
<path class="st2" d="M708.6,1131c-0.9,3.9-1.2,7.9-1.2,12.2C708.1,1139.1,708.5,1135,708.6,1131z"/>
<path class="st2" d="M716.5,714.7c-29.2-4.7-58.4-5.5-82.8,14.2c-1.6,1.6-2.4,3.9-3.9,4.7c-8.4,5.2-14.2,12.5-19,20.2
	c0.1,1.7,0.2,3.3,0.1,5c0.1-1.7,0-3.4-0.1-5c-1.1,1.7-2.1,3.4-3,5c1-1.7,2-3.4,3-5c-1.7-23.2-19.5-43.6-39.3-51
	c-39.4-14.2-86.8,15.8-94.6,56.8c-11,60.7,3.9,123.8,54.4,164.8c34,27.5,76,63.7,75.4,108.4c0.6-2.5,1.5-5,2.7-7.5
	c0.8-2.4,0-4.7,0-7.1c2.4-14.2,10.3-25.2,19.7-36.3c7.9-8.7,12.6-19.7,21.3-27.6c34.7-30.8,70.2-55.2,103.3-87.5
	c23.7-22.9,33.9-56.8,22.9-89.1C767,749.4,748.1,719.5,716.5,714.7z"/>
<path class="st2" d="M244.2,798.8c-37.2,4.7-73,14.2-95.7,46.9c-1.4,2.5-1.5,5.6-3.1,7.2c-8.4,9.3-12.8,20.3-15.9,31.4
	c0.7,2,1.4,4,1.9,6.1c-0.5-2.1-1.2-4.1-1.9-6.1c-0.7,2.4-1.3,4.8-1.9,7.2c0.6-2.4,1.2-4.8,1.9-7.2c-10.3-27.6-39.3-46.1-66.1-47.9
	c-53-3.2-99.9,50.2-94.8,102.9c8.3,77.8,49.1,149.2,125.2,181c51.2,21.3,115.2,50.2,130.5,104.9c-0.2-3.3,0-6.6,0.6-10.1
	c0.1-3.2-1.7-5.8-2.5-8.6c-2.2-18.1,3.4-34.4,11-51.2c6.5-13.4,8.3-28.5,16-41.2c31.2-49.8,65.6-92.3,94.4-143.5
	c20.6-36.3,20.9-81.2-4.1-116.6C318,823,284.3,793.3,244.2,798.8z"/>
<path class="st2" d="M1438.8,1516.9c-29.2-4.7-58.4-5.5-82.8,14.2c-1.6,1.6-2.4,3.9-3.9,4.7c-8.4,5.2-14.2,12.5-19,20.2
	c0.1,1.7,0.2,3.3,0.1,5c0.1-1.7,0-3.4-0.1-5c-1.1,1.7-2.1,3.4-3,5c1-1.7,2-3.4,3-5c-1.7-23.2-19.5-43.6-39.3-51
	c-39.4-14.2-86.8,15.8-94.6,56.8c-11,60.7,3.9,123.8,54.4,164.8c34,27.5,76,63.7,75.4,108.4c0.6-2.5,1.5-5,2.7-7.5
	c0.8-2.4,0-4.7,0-7.1c2.4-14.2,10.3-25.2,19.7-36.3c7.9-8.7,12.6-19.7,21.3-27.6c34.7-30.8,70.2-55.2,103.3-87.5
	c23.7-22.9,33.9-56.8,22.9-89.1C1489.3,1551.6,1470.4,1521.7,1438.8,1516.9z"/>
<path class="st0" d="M1508,1119.5c-25.7-14.6-52.8-25.5-82.6-15.5c-2,0.9-3.6,2.9-5.3,3.1c-9.7,1.9-17.7,6.8-24.9,12.3
	c-0.5,1.6-1,3.2-1.7,4.8c0.6-1.6,1.2-3.2,1.7-4.8c-1.6,1.2-3.1,2.4-4.6,3.7c1.5-1.2,3-2.5,4.6-3.7c6.5-22.3-3.1-47.6-19.1-61.5
	c-32-27-86.8-15.4-108.5,20.3c-31.5,53.1-39.4,117.4-6.4,173.5c22.3,37.6,49.1,86.1,32.9,127.9c1.4-2.2,3.1-4.2,5.2-6.1
	c1.6-1.9,1.6-4.4,2.5-6.7c7.2-12.5,18.4-20.1,31.1-27.1c10.4-5.4,18.7-14.1,29.6-18.5c43.2-16.7,85-27.3,127.3-46.1
	c30.1-13.2,51.6-41.4,52.5-75.6C1543.2,1169.7,1535.9,1135,1508,1119.5z"/>
<path class="st3" d="M244.3,1154.1c-25.9-14.3-53.1-24.8-82.8-14.5c-2,1-3.6,2.9-5.3,3.1c-9.7,2-17.6,7-24.7,12.6
	c-0.4,1.6-1,3.2-1.6,4.8c0.6-1.6,1.1-3.2,1.6-4.8c-1.6,1.2-3.1,2.5-4.6,3.7c1.5-1.3,3-2.5,4.6-3.7c6.2-22.4-3.7-47.6-19.9-61.2
	c-32.4-26.6-87-14.3-108.2,21.6c-30.8,53.5-38,117.9-4.2,173.5c22.8,37.4,50.2,85.5,34.5,127.5c1.4-2.2,3.1-4.2,5.1-6.1
	c1.5-2,1.6-4.5,2.4-6.7c7-12.6,18.1-20.3,30.8-27.5c10.3-5.5,18.5-14.3,29.3-18.8c43-17.3,84.7-28.4,126.8-47.7
	c30-13.6,51-42.1,51.5-76.2C280.1,1203.8,272.4,1169.2,244.3,1154.1z"/>
<path class="st4" d="M-34.2,2014.6c10.3,0.5,20.6,1.3,30.9,2.3c8.9,0.9,17.9,1.9,26.8,3c4.9,0.6,9.9,1.3,14.8,2
	c1.9,0.3,3.9,0.5,5.8,0.8c0.9,0.1,1.5,0.2,1.9,0.3c12.9,1.7,25.8,3,38.7,4.1c3.2-10.7,3.2-22.1,7.7-32.3
	c19.1-42.3,41.4-79.1,58.4-122.2c12.2-30.6,7.7-65.7-15.6-90.7c-20.3-22-49.8-41.6-80.5-33c-28.6,7.6-55.5,18.9-69.7,46.9
	c-0.8,2.1-0.5,4.6-1.7,5.9c-5.6,8.2-7.8,17.2-9.1,26.2c-11-20.5-35.6-31.8-56.7-30.4c-41.8,3.2-72.7,49.9-63.1,90.6
	C-131.3,1946.2-93.7,1996.3-34.2,2014.6z"/>
<path class="st5" d="M1424.4,1054.9c-25.4-15-52.3-26.4-82.3-17c-2,0.9-3.6,2.8-5.4,3c-9.7,1.8-17.8,6.5-25.1,11.9
	c-0.5,1.6-1.1,3.2-1.7,4.7c0.7-1.6,1.2-3.1,1.7-4.7c-1.6,1.2-3.1,2.4-4.7,3.6c1.5-1.2,3.1-2.4,4.7-3.6c6.9-22.2-2.2-47.7-18-61.8
	c-31.5-27.6-86.5-16.9-108.8,18.4c-32.4,52.5-41.5,116.7-9.4,173.3c21.7,38,47.6,87,30.6,128.5c1.5-2.1,3.2-4.1,5.3-6
	c1.6-1.9,1.7-4.4,2.6-6.6c7.4-12.4,18.7-19.8,31.6-26.6c10.5-5.2,18.9-13.8,29.9-17.9c43.5-16,85.5-25.8,128.1-43.9
	c30.4-12.7,52.3-40.5,53.8-74.7C1458.7,1105.6,1452,1070.8,1424.4,1054.9z"/>
<path class="st4" d="M505.5,2673.2c0.1-0.1,0.2-0.1,0.2-0.2c3-6.2,6.4-12.1,10.3-17.8c-0.2,0-0.3,0-0.5,0
	C511.8,2661,508.5,2667,505.5,2673.2z"/>
<path class="st4" d="M441.8,2565.6c-0.1-1.1-0.3-2.2-0.4-3.3c-0.4,0-0.7,0-1.1,0c0.2,1.2,0.3,2.5,0.5,3.7
	C441.1,2565.9,441.5,2565.7,441.8,2565.6z"/>
<path class="st4" d="M617.3,2831.6c-0.2,0.3-0.4,0.6-0.6,0.8c4.6,3,8.4,6.6,11.6,10.6l0.6-0.9
	C625.7,2838.1,621.8,2834.5,617.3,2831.6z"/>
<path class="st4" d="M551.9,2812.3c-2.1-0.6-4.1-1.4-6.1-2.1c-0.4,0.1-0.8,0.2-1.1,0.3c7.3,2.9,15.1,5.1,23.2,6.8
	c0.2-0.3,0.4-0.6,0.6-0.9C562.9,2815.2,557.3,2814,551.9,2812.3z"/>
<path class="st4" d="M293.3,1938.1c-50-14.9-91.8,32.6-101.5,77.3c-11.7,54.3,21.7,104.7,56.7,144.7c0-0.5,0-0.9,0.1-1.4
	c-24.2-27.7-46.2-58.9-54.8-95.3c-7.7-32.7-0.4-66.7,20.1-93.4c20.1-26.1,52.7-41.7,85-29c13.2,5.2,24,14.1,32.8,24.8
	c-0.1,0.3-0.1,0.6-0.2,0.9c-4.4,21.6-6.7,44.7,0.7,65.9c7.7,21.9,24.7,37.7,45.1,47.9c2.3,10.1,4.3,20.3,6.2,30.5c0.3,0,0.6,0,0.9,0
	c-1.9-10-4-20-6.3-29.9c0-0.1,0-0.1,0-0.2c0.2,0.1,0.3,0.2,0.5,0.2c10.6,5.1,22.1,9,33.9,12.4c-0.2,6.3-0.4,12.6-0.8,18.8
	c0.7,0.1,1.4,0.1,2.1,0.2c0.4-6.1,0.6-12.3,0.7-18.4c28.8,8.1,59.4,13.6,84.3,28.2c0.4,0,0.8,0.1,1.1,0.1
	c-26-15.7-56.3-20.9-85.5-29.3c0.3-18.5-0.2-36.6-0.4-53.3c-0.6-68.8-9-140-46.1-199.5c-9.1-14.5-19.6-28.2-31.6-40.3
	c-6.5-8.1-14.4-14.7-23.1-20.1c-1.2-0.9-2.3-1.7-3.5-2.6c-24.5-17.3-50.5-23.8-79-31c-17.7-4.5-35.6-12.5-40.8-31.8
	c-4.6-17.5,0.3-38.4,4.6-55.5c7.5-29.6,20.4-57.8,37.4-83.1c2-2.9,4-5.8,6.1-8.6c1.4-1,2.8-2.1,4.2-3.2c9.8-7.9,18.5-17.7,23.3-29.2
	c32.1-32.5,71.9-57.4,115.6-70.7c29.3-8.9,59.3-10.5,89.6-12.7c28.9-2.1,59.7-5.2,84.7-21.2c46.9-30,46.1-90.9,21.8-135.4
	c-30.6-55.9-94.2-79.9-150.1-102.1c-31.2-12.4-67-24.4-89.6-50.6c-11.4-13.3-18.1-29.7-14.6-47.3c3-14.8,12.3-30.1,26.8-35.9
	c0.3,6.4,9.5,10.5,17,7.2c2.9,8.4,18.9,4.7,20.6-3.5c1.2-6.1-7-11.6-11.8-13.6c-6.8-2.9-16.6-3.4-22.3,2.3c-2.2,2.2-3.3,4.4-3.5,6.4
	c-0.4,0.2-0.8,0.3-1.1,0.5c-19.9,8.6-30.8,34.2-27.1,54.8c5,28.6,32.4,47.6,56.5,59.8c61.8,31.2,138.5,44.7,184.2,101.2
	c20.5,25.4,33.5,59.3,30.7,92.2c-3.1,35.3-26.5,62-59.4,73.6c-31.6,11.2-66.1,10.3-99.1,13.3c-30.3,2.8-59.5,10.2-87.2,22.9
	c-30,13.8-57.3,33.1-80.7,56.4c1.8-4.8,2.9-10,3.1-15.3c1.2-27.4-20.8-48-25.8-73.9c-5.7-29.3,2.7-59.1,0.3-88.6
	c-2.3-28.1-18.5-46.7-33.6-69.1c-8-11.9-16.8-27.1-12.6-41.8c2.1-7.6,7-14.7,13.2-19.9c-4.7,6.5-7.1,14.5-5.7,23
	c0,0.2,0.2,0.4,0.5,0.4c10.2,1.9,20.3-0.6,28.3-7.2c4.7-3.9,12-11.4,9.2-17.6c-0.8-1.8-1.8-3.2-2.9-4.3c4.4-1.6,8.6-3.6,12.2-5.3
	c0.3-0.1,0.4-0.7,0.1-0.9c-12.3-6.1-26.3-2.7-36,5.6c-8.6-4.6-13.7-18.4-4.4-25.1c0.5-0.4-0.1-1.1-0.7-0.8c-8.3,6-6.1,17.7,0.7,24.1
	c1.1,1,2.2,1.9,3.4,2.5c-1.1,1-2.1,2.1-3.1,3.2c-2.6,1.8-4.9,3.7-6.5,5.5c-15.7,17.1-10.8,36.7,0.6,54.9c7.7,12.4,17.5,23.4,24.8,36
	c9.1,15.6,11.9,32.9,11.7,50.7c-0.4,29.9-7.8,61.1,3.8,89.8c6.2,15.4,16.6,28.8,20.2,45.2c2.3,10.3,1.2,20.9-2.7,30.5
	c-10.5,10.7-20.3,22.2-29,34.4c-33.2,23.7-80.2,28.2-116.2,45.2c-20.1,9.5-41.1,22.9-51.8,43c-9.6,17.9-8,39.7,3.8,56.2
	c29.3,41,91.8,39,136.4,42.5c32.9,2.6,72,5.8,101.7,22.7c9.6,6.8,18.5,14.5,26.7,22.9c2.7,3.6,5.3,7.5,7.5,11.7
	c25,47.5-1.2,102.8-11.7,151C321.8,1952,309.2,1942.8,293.3,1938.1z M359.3,1049.2c7.1-2.8,19.2-0.1,23.7,6.3
	c2.8,3.9,2.2,9.5-1.6,12.4c-3.5,2.6-12,3.6-13.8-2c2.9-1.5,5.2-4.2,2.9-7.5c-3.2-4.8-13.3-3-19.3-1
	C352.4,1053.9,355.9,1050.6,359.3,1049.2z M351,1058.6c0.1,0,0.3-0.1,0.4-0.2c2.7-0.9,8.4-2.9,11.1-1.7c0.6,0.3,3.7,4.2,4.6,6.7
	c-0.3-0.2-0.8-0.1-0.8,0.3c0,0.6,0.1,1.2,0.2,1.7c-1,0.4-2.8,0.5-3.7,0.7c-2.1,0.5-5.8,0.2-7.8-0.8
	C351.7,1063.6,350.7,1061.1,351,1058.6z M230.1,1211.3c3.8-1.2,22.2-3.1,17.4,3c-1.2,1.5-4.4,2.6-7.4,3.4c-5.5-5-14.2-3.1-21.7,0.7
	c-0.2-0.1-0.4-0.2-0.6-0.2C221.4,1215.1,225.5,1212.8,230.1,1211.3z M237.8,1218.3c-1.5,0.3-2.8,0.6-3.6,0.8c-4.8,1-10.2,1.3-15-0.4
	c0.4-0.2,0.8-0.4,1.3-0.6c5.4-2.3,11.5-3.1,16.8-0.1C237.4,1218.1,237.6,1218.2,237.8,1218.3z M213,1223c0.5-0.5,0.9-1.1,1.4-1.6
	c1.1-0.7,2.2-1.4,3.3-2c6.3,2.8,13.8,1.7,20.9-0.6c8.5,6.1,0.3,16.4-6.2,21.4c-4.8,3.7-17.5,9.9-23.7,6.6
	C200.8,1242.6,209.2,1227.7,213,1223z M263.6,1536.9c-1.1,2.3-2.3,4.5-3.6,6.6c-6,9.4-13.3,16.9-21.6,23.2
	C246.2,1556.3,254.6,1546.3,263.6,1536.9z M249.4,1759.1c-23.8-3.5-47.8-4.8-71.8-6.8c-24.7-2.1-50.3-4.2-73.1-14.8
	c-25.4-11.8-47.1-35.3-41.2-65.3c4.9-25,27.6-42.2,48.8-53.4c39.6-21,86.2-23.9,123.4-49.7c-6.5,9.2-12.5,18.8-17.9,28.6
	c-13.9,25.5-23.6,53.2-28.2,81.9c-2.4,14.9-4.2,31.9,3.9,45.4c5.9,9.8,16,15.5,26.5,19.1c14.7,5.1,30.4,6.8,45.2,11.6
	c14.1,4.6,27.5,11.3,39.9,19.5C287.9,1766.7,268.4,1761.9,249.4,1759.1z M337.4,1946.1c10.5-40.8,28.2-87.6,9.6-128.7
	c-1.8-4.1-3.9-7.8-6.3-11.4c13.7,14.9,25.4,31.7,34.9,49.5c38.1,71.1,38.9,154.7,36.9,233.4c0,1.2-0.1,2.4-0.1,3.6
	c-11.9-3.4-23.5-7.5-34.6-13c-8.2-35.7-18.9-83.9-44.9-114.8C334.3,1958.5,335.8,1952.3,337.4,1946.1z M358.9,2016.5
	c7.4,20.3,13.3,41.4,18.1,62.8c-0.7-0.3-1.4-0.7-2-1c-23.6-12.3-40.8-33.1-45.3-59.6c-2.9-17.2-0.8-34.7,2.7-51.8
	C344.3,1981.4,352.7,1999.4,358.9,2016.5z"/>
<path class="st0" d="M430.9,2153.3c-35.1-13.2-71.1-21.6-106.5-3.2c-2.4,1.6-3.9,4.3-6.1,4.9c-11.8,4.3-20.8,12-28.7,20.3
	c-0.3,2.1-0.6,4.2-1.1,6.3c0.5-2.1,0.9-4.2,1.1-6.3c-1.7,1.8-3.4,3.6-5.1,5.5c1.6-1.8,3.3-3.7,5.1-5.5c3.8-29.2-13.2-59.1-36-73.2
	c-45.4-27.6-111.8-2.2-131.9,46.7c-29,72.7-26.3,154.9,26.1,218.5c35.4,42.8,78.4,98.2,66.3,153.7c1.4-3,3.1-5.9,5.3-8.6
	c1.6-2.7,1.2-5.9,1.8-8.8c6.5-17,19.1-28.8,33.6-40.1c12-8.8,20.6-21.3,33.4-28.9c50.9-29.5,101.1-50.9,150.4-82.8
	c35.2-22.5,56.4-62,50.9-105C484.9,2209.2,468.9,2167.2,430.9,2153.3z"/>
<path class="st4" d="M156.3,3350.1c-50-14.9-91.8,32.6-101.5,77.3c-11.7,54.3,21.7,104.7,56.7,144.7c0-0.5,0-0.9,0.1-1.4
	c-24.2-27.7-46.2-58.9-54.8-95.3c-7.7-32.7-0.4-66.7,20.1-93.4c20.1-26.1,52.7-41.7,85-29c13.2,5.2,24,14.1,32.8,24.8
	c-0.1,0.3-0.1,0.6-0.2,0.9c-4.4,21.6-6.7,44.7,0.7,65.9c7.7,21.9,24.7,37.7,45.1,47.9c2.3,10.1,4.3,20.3,6.2,30.5c0.3,0,0.6,0,0.9,0
	c-1.9-10-4-20-6.3-29.9c0-0.1,0-0.1,0-0.2c0.2,0.1,0.3,0.2,0.5,0.2c10.6,5.1,22.1,9,33.9,12.4c-0.2,6.3-0.4,12.6-0.8,18.8
	c0.7,0.1,1.4,0.1,2.1,0.2c0.4-6.1,0.6-12.3,0.7-18.4c28.8,8.1,59.4,13.6,84.3,28.2c0.4,0,0.8,0.1,1.1,0.1
	c-26-15.7-56.3-20.9-85.5-29.3c0.3-18.5-0.2-36.6-0.4-53.3c-0.6-68.8-9-140-46.1-199.5c-9.1-14.5-19.6-28.2-31.6-40.3
	c-6.5-8.1-14.4-14.7-23.1-20.1c-1.2-0.9-2.3-1.7-3.5-2.6c-24.5-17.3-50.5-23.8-79-31c-17.7-4.5-35.6-12.5-40.8-31.8
	c-4.6-17.5,0.3-38.4,4.6-55.5c7.5-29.6,20.4-57.8,37.4-83.1c2-2.9,4-5.8,6.1-8.6c1.4-1,2.8-2.1,4.2-3.2c9.8-7.9,18.5-17.7,23.3-29.2
	c32.1-32.5,71.9-57.4,115.6-70.7c29.3-8.9,59.3-10.5,89.6-12.7c28.9-2.1,59.7-5.2,84.7-21.2c46.9-30,46.1-90.9,21.8-135.4
	c-30.6-55.9-94.2-79.9-150.1-102.1c-31.2-12.4-67-24.4-89.6-50.6c-11.4-13.3-18.1-29.7-14.6-47.3c3-14.8,12.3-30.1,26.8-35.9
	c0.3,6.4,9.5,10.5,17,7.2c2.9,8.4,18.9,4.7,20.6-3.5c1.2-6.1-7-11.6-11.8-13.6c-6.8-2.9-16.6-3.4-22.3,2.3c-2.2,2.2-3.3,4.4-3.5,6.4
	c-0.4,0.2-0.8,0.3-1.1,0.5c-19.9,8.6-30.8,34.2-27.1,54.8c5,28.6,32.4,47.6,56.5,59.8c61.8,31.2,138.5,44.7,184.2,101.2
	c20.5,25.4,33.5,59.3,30.7,92.2c-3.1,35.3-26.5,62-59.4,73.6c-31.6,11.2-66.1,10.3-99.1,13.3c-30.3,2.8-59.5,10.2-87.2,22.9
	c-30,13.8-57.3,33.1-80.7,56.4c1.8-4.8,2.9-10,3.1-15.3c1.2-27.4-20.8-48-25.8-73.9c-5.7-29.3,2.7-59.1,0.3-88.6
	c-2.3-28.1-18.5-46.7-33.6-69.1c-8-11.9-16.8-27.1-12.6-41.8c2.1-7.6,7-14.7,13.2-19.9c-4.7,6.5-7.1,14.5-5.7,23
	c0,0.2,0.2,0.4,0.5,0.4c10.2,1.9,20.3-0.6,28.3-7.2c4.7-3.9,12-11.4,9.2-17.6c-0.8-1.8-1.8-3.2-2.9-4.3c4.4-1.6,8.6-3.6,12.2-5.3
	c0.3-0.1,0.4-0.7,0.1-0.9c-12.3-6.1-26.3-2.7-36,5.6c-8.6-4.6-13.7-18.4-4.4-25.1c0.5-0.4-0.1-1.1-0.7-0.8c-8.3,6-6.1,17.7,0.7,24.1
	c1.1,1,2.2,1.9,3.4,2.5c-1.1,1-2.1,2.1-3.1,3.2c-2.6,1.8-4.9,3.7-6.5,5.5c-15.7,17.1-10.8,36.7,0.6,54.9c7.7,12.4,17.5,23.4,24.8,36
	c9.1,15.6,11.9,32.9,11.7,50.7c-0.4,29.9-7.8,61.1,3.8,89.8c6.2,15.4,16.6,28.8,20.2,45.2c2.3,10.3,1.2,20.9-2.7,30.5
	c-10.5,10.7-20.3,22.2-29,34.4c-33.2,23.7-80.2,28.2-116.2,45.2c-20.1,9.5-41.1,22.9-51.8,43c-9.6,17.9-8,39.7,3.8,56.2
	c29.3,41,91.8,39,136.4,42.5c32.9,2.6,72,5.8,101.7,22.7c9.6,6.8,18.5,14.5,26.7,22.9c2.7,3.6,5.3,7.5,7.5,11.7
	c25,47.5-1.2,102.8-11.7,151C184.8,3364,172.2,3354.8,156.3,3350.1z M222.3,2461.2c7.1-2.8,19.2-0.1,23.7,6.3
	c2.8,3.9,2.2,9.5-1.6,12.4c-3.5,2.6-12,3.6-13.8-2c2.9-1.5,5.2-4.2,2.9-7.5c-3.2-4.8-13.3-3-19.3-1
	C215.4,2465.9,218.9,2462.6,222.3,2461.2z M214,2470.6c0.1,0,0.3-0.1,0.4-0.2c2.7-0.9,8.4-2.9,11.1-1.7c0.6,0.3,3.7,4.2,4.6,6.7
	c-0.3-0.2-0.8-0.1-0.8,0.3c0,0.6,0.1,1.2,0.2,1.7c-1,0.4-2.8,0.5-3.7,0.7c-2.1,0.5-5.8,0.2-7.8-0.8
	C214.7,2475.6,213.7,2473.1,214,2470.6z M93.1,2623.3c3.8-1.2,22.2-3.1,17.4,3c-1.2,1.5-4.4,2.6-7.4,3.4c-5.5-5-14.2-3.1-21.7,0.7
	c-0.2-0.1-0.4-0.2-0.6-0.2C84.4,2627.1,88.5,2624.8,93.1,2623.3z M100.8,2630.3c-1.5,0.3-2.8,0.6-3.6,0.8c-4.8,1-10.2,1.3-15-0.4
	c0.4-0.2,0.8-0.4,1.3-0.6c5.4-2.3,11.5-3.1,16.8-0.1C100.4,2630.1,100.6,2630.2,100.8,2630.3z M76,2635c0.5-0.5,0.9-1.1,1.4-1.6
	c1.1-0.7,2.2-1.4,3.3-2c6.3,2.8,13.8,1.7,20.9-0.6c8.5,6.1,0.3,16.4-6.2,21.4c-4.8,3.7-17.5,9.9-23.7,6.6
	C63.8,2654.6,72.2,2639.7,76,2635z M126.6,2948.9c-1.1,2.3-2.3,4.5-3.6,6.6c-6,9.4-13.3,16.9-21.6,23.2
	C109.2,2968.3,117.6,2958.3,126.6,2948.9z M112.4,3171.1c-23.8-3.5-47.8-4.8-71.8-6.8c-24.7-2.1-50.3-4.2-73.1-14.8
	c-25.4-11.8-47.1-35.3-41.2-65.3c4.9-25,27.6-42.2,48.8-53.4c39.6-21,86.2-23.9,123.4-49.7c-6.5,9.2-12.5,18.8-17.9,28.6
	c-13.9,25.5-23.6,53.2-28.2,81.9c-2.4,14.9-4.2,31.9,3.9,45.4c5.9,9.8,16,15.5,26.5,19.1c14.7,5.1,30.4,6.8,45.2,11.6
	c14.1,4.6,27.5,11.3,39.9,19.5C150.9,3178.7,131.4,3173.9,112.4,3171.1z M200.4,3358.1c10.5-40.8,28.2-87.6,9.6-128.7
	c-1.8-4.1-3.9-7.8-6.3-11.4c13.7,14.9,25.4,31.7,34.9,49.5c38.1,71.1,38.9,154.7,36.9,233.4c0,1.2-0.1,2.4-0.1,3.6
	c-11.9-3.4-23.5-7.5-34.6-13c-8.2-35.7-18.9-83.9-44.9-114.8C197.3,3370.5,198.8,3364.3,200.4,3358.1z M221.9,3428.5
	c7.4,20.3,13.3,41.4,18.1,62.8c-0.7-0.3-1.4-0.7-2-1c-23.6-12.3-40.8-33.1-45.3-59.6c-2.9-17.2-0.8-34.7,2.7-51.8
	C207.3,3393.4,215.7,3411.4,221.9,3428.5z"/>
<path class="st6" d="M1191.8,2019.1c-37.4,3.1-73.5,11.1-97.5,42.9c-1.5,2.4-1.7,5.6-3.4,7c-8.8,9-13.6,19.7-17.2,30.7
	c0.7,2,1.2,4.1,1.7,6.2c-0.5-2.1-1-4.2-1.7-6.2c-0.8,2.4-1.5,4.8-2.2,7.1c0.7-2.4,1.4-4.8,2.2-7.1c-9.2-28-37.3-47.7-64-50.6
	c-52.9-5.4-101.9,46-99,98.9c5,78.1,42.8,151.1,117.5,186.1c50.3,23.4,113,55,126,110.3c0-3.3,0.3-6.6,1-10c0.2-3.2-1.5-5.8-2.2-8.7
	c-1.4-18.2,4.9-34.2,13.1-50.7c7-13.1,9.5-28.1,17.7-40.5c33.3-48.5,69.4-89.4,100.3-139.4c22.1-35.4,24.3-80.3,0.8-116.7
	C1264.6,2046.3,1232.1,2015.3,1191.8,2019.1z"/>
<path class="st4" d="M1458.2,3217.7c-51.5,8-68.9,68.9-58.4,113.4c12.7,54,64.6,85.3,113.3,106.3c-0.2-0.4-0.4-0.9-0.5-1.3
	c-33.8-14.6-67.1-33.4-90.4-62.5c-21-26.2-29.1-60.1-22-93c7-32.2,29.6-60.3,64.3-62.7c14.2-1,27.7,2.4,40.3,8.3
	c0.1,0.3,0.1,0.6,0.2,0.9c5.3,21.4,13.1,43.2,29,59.2c16.4,16.5,38.5,23.5,61.3,23.9c6.4,8.2,12.6,16.5,18.7,24.9
	c0.3-0.1,0.6-0.2,0.8-0.4c-6.1-8.2-12.2-16.3-18.6-24.3c0,0-0.1-0.1-0.1-0.1c0.2,0,0.3,0,0.5,0c11.8,0.1,23.8-1.4,35.9-3.4
	c2.5,5.8,5,11.5,7.4,17.3c0.7-0.3,1.3-0.5,2-0.8c-2.3-5.7-4.8-11.4-7.3-16.9c29.5-5.1,59.4-13.3,88.3-10.7c0.4-0.1,0.7-0.3,1.1-0.4
	c-30.2-3-59.8,5.3-89.8,10.3c-7.6-16.8-16-33-23.3-48c-30.1-61.9-68.3-122.6-127.4-160.3c-14.4-9.2-29.8-17-45.9-22.8
	c-9.4-4.5-19.3-7.1-29.5-8.2c-1.4-0.3-2.8-0.6-4.3-0.8c-29.5-5.1-55.8,0.2-84.7,6c-18,3.6-37.5,4-50.5-11.2
	c-11.7-13.8-16.2-34.8-19.7-52.1c-6-29.9-6.4-60.9-1.9-91.1c0.5-3.5,1.1-6.9,1.8-10.4c0.8-1.5,1.6-3.1,2.4-4.6
	c5.5-11.3,9.1-23.9,8.5-36.4c15-43.1,40.2-82.8,74-113.5c22.7-20.6,49-34.9,75.5-50c25.2-14.3,51.7-30.3,67.4-55.5
	c29.5-47.2,2.6-101.9-38.5-131.6c-51.6-37.4-119.3-31.6-179.5-27.7c-33.5,2.2-71,6.8-102.7-7.2c-16-7.1-29.1-19.1-33.5-36.4
	c-3.7-14.7-1.8-32.4,8.8-43.9c3,5.7,13,5.4,18.5-0.8c6.2,6.3,19.1-3.8,17.1-12c-1.5-6.1-11.3-7.5-16.5-7.2
	c-7.4,0.3-16.5,4.1-19.1,11.7c-1,3-1.1,5.4-0.4,7.3c-0.3,0.3-0.6,0.6-0.8,0.9c-14.2,16.3-13.1,44.1-0.9,61.2
	c16.8,23.6,49.7,29.1,76.7,29.7c69.2,1.6,144.3-19.1,209.8,12.3c29.4,14.1,55.7,39.1,67.3,70.1c12.4,33.1,2.7,67.3-22,92
	c-23.7,23.7-55.2,37.7-83.7,54.6c-26.1,15.5-49.4,34.8-68.9,58.1c-21.1,25.3-37.6,54.5-48.6,85.7c-0.5-5.1-1.7-10.2-3.8-15.2
	c-10.7-25.2-39.4-34.4-55.1-55.6c-17.8-24-22.9-54.5-37.8-80.1c-14.2-24.4-36.8-34.2-60.1-48c-12.3-7.3-26.8-17.2-29.3-32.4
	c-1.3-7.8,0-16.3,3.4-23.6c-1.4,7.9-0.2,16.2,4.7,23.3c0.1,0.2,0.4,0.2,0.6,0.2c10-2.7,18-9.2,22.5-18.7c2.6-5.5,5.9-15.5,0.7-19.9
	c-1.5-1.2-2.9-2.1-4.4-2.6c3.3-3.3,6.3-6.9,8.8-10c0.2-0.3,0.1-0.8-0.3-0.8c-13.7-0.2-24.9,8.9-30.1,20.6
	c-9.7-0.5-20.3-10.7-14.7-20.8c0.3-0.6-0.6-1-0.9-0.4c-4.9,9,2.1,18.6,11,21.5c1.4,0.5,2.8,0.7,4.1,0.8c-0.6,1.4-1,2.8-1.4,4.2
	c-1.6,2.8-2.8,5.5-3.5,7.7c-6.8,22.2,6.1,37.8,24.1,49.3c12.3,7.9,25.8,13.6,37.9,21.9c14.9,10.2,24.9,24.5,32.4,40.8
	c12.5,27.1,19.2,58.5,42,79.5c12.2,11.2,27.4,18.8,37.7,32.1c6.5,8.4,10,18.3,10.7,28.6c-4.9,14.2-8.7,28.8-11.4,43.5
	c-19.8,35.7-60.3,60-85.5,90.8c-14.1,17.2-27.3,38.3-28.3,61.1c-1,20.3,9.8,39.3,27.5,49.1c44.1,24.4,99.6-4.2,141.4-20.2
	c30.8-11.7,67.5-25.7,101.6-23.2c11.6,2,22.9,5.1,33.9,9.2c4,2.1,8,4.5,11.8,7.3c43,32.1,43.1,93.3,54.3,141.3
	C1489.9,3218.1,1474.5,3215.2,1458.2,3217.7z M1135.8,2386.7c5.2-5.6,17.3-8.4,24.1-4.5c4.2,2.4,6.1,7.6,3.9,11.9
	c-2,3.8-9.3,8.4-13.3,4.1c1.9-2.6,2.8-6-0.6-8.1c-5-3-13.3,3-17.8,7.4C1131.6,2393.9,1133.3,2389.4,1135.8,2386.7z M1132.3,2398.7
	c0.1-0.1,0.2-0.2,0.3-0.3c2-2,6.3-6.3,9.3-6.3c0.6,0,5.2,2.2,7,4c-0.4,0-0.7,0.2-0.5,0.6c0.3,0.6,0.6,1,0.9,1.5
	c-0.7,0.8-2.3,1.6-3,2.2c-1.7,1.3-5.2,2.7-7.4,2.6C1135.1,2403,1133.1,2401.2,1132.3,2398.7z M1088.7,2588.7
	c2.9-2.8,18.7-12.3,17-4.8c-0.4,1.9-2.8,4.2-5.2,6.3c-7.1-2.1-14.2,3.3-19.3,9.9c-0.2,0-0.4,0-0.6,0
	C1082.6,2595.8,1085.3,2591.9,1088.7,2588.7z M1098.7,2591.6c-1.2,0.9-2.3,1.7-3,2.3c-3.9,3-8.7,5.6-13.7,6.1
	c0.3-0.4,0.6-0.7,0.9-1.1c3.9-4.4,9.1-7.7,15.1-7.3C1098.3,2591.6,1098.5,2591.6,1098.7,2591.6z M1078.4,2606.5
	c0.2-0.7,0.4-1.4,0.6-2c0.7-1.1,1.4-2.2,2.1-3.2c6.9-0.2,13.2-4.4,18.6-9.5c10.3,1.9,7.3,14.7,3.6,22c-2.7,5.4-11.5,16.4-18.5,16.1
	C1075.7,2629.4,1076.9,2612.4,1078.4,2606.5z M1259,2868.2c0,2.5-0.1,5-0.4,7.5c-1.4,11-4.7,21-9.5,30.2
	C1251.5,2893.2,1254.8,2880.6,1259,2868.2z M1341.5,3075c-23,7-45.2,16.3-67.7,24.7c-23.2,8.8-47.2,17.8-72.4,18
	c-28.1,0.2-57.7-11.6-65.3-41.3c-6.3-24.7,6.8-49.9,21.1-69.2c26.7-36,67.6-58.6,90.1-97.9c-2,11.1-3.3,22.3-3.9,33.6
	c-1.6,29,1.5,58.2,9.7,86.1c4.2,14.4,9.9,30.6,23.1,39.3c9.5,6.3,21.1,7.1,32.1,5.9c15.5-1.7,30.3-6.9,45.8-8.9
	c14.7-1.9,29.7-1.7,44.4,0.4C1379.6,3065.3,1359.9,3069.4,1341.5,3075z M1501.4,3206c-8-41.3-12.2-91.2-46.6-120.3
	c-3.4-2.9-6.9-5.4-10.6-7.6c18.8,7.6,36.5,17.7,52.8,29.7c64.9,47.9,101.6,123,133.6,194.9c0.5,1.1,1,2.2,1.5,3.3
	c-12.2,2-24.4,3.4-36.9,3.2c-22.8-28.7-53.1-67.7-89.9-84.3C1503.9,3218.6,1502.6,3212.3,1501.4,3206z M1551,3260.3
	c15.5,15.2,29.8,31.7,43.4,48.9c-0.8,0-1.5,0-2.3,0c-26.6-1-51.1-12.3-66.5-34.4c-10-14.3-15.7-31-19.8-48
	C1522.8,3235,1538.1,3247.6,1551,3260.3z"/>
<path class="st4" d="M644.4,1229.3c30.8,17.1,67.6,10.3,100.7,18.8c31.3,8,55.8,30.1,72.3,57.2c15.6,25.6,24.9,55,29.8,84.5
	c2.5,15,4.1,30.5,3.6,45.7c-0.5,0-1.1,0-1.6,0c-2.2-13.3-5.2-26.4-9-39.3c-6.9-22.8-20.6-44.6-41.9-56.6
	c-11.2-6.3-34.4-10.9-41.5,4.7c-3.6,8-0.2,22.9,2.3,30.8c3.1,9.8,8.5,18.9,15.1,26.7c18.1,21.3,46.3,34.8,74.2,35.2
	c0.6,3.5,1,7,1.5,10.5c-2.2,18.1-8.1,35.4-20.1,50.5c-38.3,48.3-106.6,58.4-161.1,78.6c-53.8,19.9-109.9,52.2-134.4,106.8
	c-18.8,41.9-10.2,98,23,130.5c16.1,15.7,37.2,23.7,59.6,22.5c20.3-1.1,39.2-8.5,57.7-16.8c-9.8,18.7-17.5,41-12.7,61.3
	c4.4,18.4,19.2,29.4,36,36c20.8,8.2,43.4,11,63.7,20.5c23.2,10.9,38.4,31.3,43.9,56.2c3.5,16,4,31,2.3,45.3c0.3-2.1,0.5-4.2,0.7-6.3
	c1.9-21.4-0.4-44.1-10.8-63.3c-10.8-19.7-28.9-31.4-49.8-38.4c-23.9-8-53.9-10.5-72.8-28.8c-22.9-22.2-12.9-56.8,1.1-83.2
	c8.1-3.6,16.1-7.4,24.1-10.8c31.3-13.4,64.1-20,96.7-6.6c28.8,11.9,51.5,35,69.9,59.6c18.6,24.9,33.9,52.5,46.9,80.7
	c8.3,17.9,17.1,41.7,4.2,59.7c-10.4,14.5-32.3,18.6-48.1,24c-21.4,7.4-42.6,15.3-63.7,23.6c0.7-3.4,1.2-6.8,1.6-10.3
	c-0.4,3.5-1,6.9-1.7,10.3c-51.6,20.4-102.2,43.6-151.4,69.5c-7.6,4-15.1,8-22.6,12.1c0.7,0,1.3,0,2,0.1c29.2-15.9,58.9-31,89.1-45
	c27.2-12.7,54.8-24.1,82.5-34.8c-0.2,0.8-0.3,1.7-0.5,2.5c0.2-0.8,0.4-1.7,0.5-2.5c28.6-11.1,57.5-21.6,86.5-32.1
	c19.1-6.9,34-18.8,33.2-40.8c-0.8-22-13.5-43.3-23.5-62.3c-20.5-38.8-45.9-79.1-83.2-103.8c-37.9-25.2-78.5-22.2-118.9-4.9
	c-7.4,3.1-14.9,6.5-22.6,9.8c2.5-4.5,5-8.8,7.6-12.7c34-52.6,87.4-88.9,120.2-142.8c31.9-52.3,48.6-113.6,48.3-174.8
	c0-12.7-0.8-25.3-2.3-37.9c0.2-1.9,0.5-3.8,0.6-5.8c0.2-2,0.3-4,0.4-6.1c14.2-0.4,28.3-4.2,40.8-12.2c39.1-25,52.7-76.6,43.2-120.2
	c-5.4-24.4-18.2-44.3-35.3-62.2c-19.8-20.6-44.1-38.8-57.4-64.7c-29.6-58,40-116.4,4.8-172.5c-1.1-1.7-2.2-3.4-3.4-5.1
	c-0.1-0.8-0.2-1.7-0.2-2.5c2.4-14.2,10.3-25.2,19.7-36.3c7.9-8.7,12.6-19.7,21.3-27.6c34.7-30.8,70.2-55.2,103.3-87.5
	c23.7-22.9,33.9-56.8,22.9-89.1c-9.5-28.4-28.4-58.4-59.9-63.1c-29.2-4.7-58.4-5.5-82.8,14.2c-1.6,1.6-2.4,3.9-3.9,4.7
	c-8.4,5.2-14.2,12.5-19,20.2c-1.7-23.2-19.5-43.6-39.3-51c-39.4-14.2-86.8,15.8-94.6,56.8c-11,60.7,3.9,123.8,54.4,164.8
	c23.8,19.2,51.5,42.7,65.8,70.4c-5.8-0.6-11.8,1.2-16.7,5.1c-6.5,5.4-10.2,14.3-2.6,20.3c11.5,9,22-0.3,22.6-10.3
	c1.5,1.8,2.9,3.7,4.3,5.5c1.3,5.6,2,11.4,1.9,17.3c0.6-2.5,1.5-5,2.7-7.5c0.3-1,0.4-2,0.3-3c3,4.5,5.8,9.2,7.9,14.1
	c7.2,16.7,5.4,34.7,0.8,51.8c-6.7,24.8-19.1,48.9-19.5,75c-0.7,49.1,46.7,77.1,75,110.4c33,38.7,39,98,11.8,141.6
	c-16.2,26-41.8,39.5-68.8,40.7c1.7-43.7-10.7-92-32.8-129.1c-10.2-17.1-23.3-32.6-39.8-43.8c-19.1-13-40.8-17.8-63.6-19.8
	c-28.9-2.5-59.1-3-82.8-22.3c-19.5-15.9-30.4-39.8-36.9-63.5c-6.1-22.3-8.8-45.6-10.4-68.6c-1.6-23.8-0.6-56.7,21-69.8
	c-0.1,3.1,0.7,6.2,2.9,9c9.7,12.3,32.1,7.9,42.8,0.4c0.2-0.1,0.2-0.4,0.1-0.6c-7.8-16.9-28.9-18.4-44.1-10.7c1-8,7.8-15.9,15.3-18.3
	c0.6-0.2,0.4-1.2-0.2-1c-7.4,2.4-15.7,11.3-16.7,20.1c-0.4,0.2-0.8,0.4-1.1,0.7c-23.1,14.1-22.5,46.8-20.9,70.4
	C588.1,1137.7,596.3,1202.6,644.4,1229.3z M793.9,1418.2c-20.7-14.1-36.8-36.6-37.2-62.4c-0.2-13.8,9.2-22.1,23.1-21.3
	c14.4,0.8,27.7,11.4,37.1,21.6c19.4,21.2,26.1,49.7,30.8,77.4c0.1,0.6,0.2,1.3,0.3,1.9C829.6,1435.4,810.7,1429.7,793.9,1418.2z
	 M834.3,993.8c-6.8,18.9-36.3,0.8-18.2-13.9c2.6-2.1,5.4-3.5,8.5-4.3c0,0,0,0.1,0.1,0.1c3.3,4.2,6.8,8.4,10.2,12.6
	C834.9,990.1,834.8,992,834.3,993.8z M828.1,978.6c1,0.4,2,0.7,3,1.1c1.9,2.3,3.1,4.8,3.5,7.4C832.2,984.4,829.3,981.5,828.1,978.6z
	 M836.4,989.2c-0.3-0.4-0.6-0.7-0.9-1.1c-0.1-5.1-2.8-10.2-9.4-12.8c2.2-0.4,4.4-0.5,6.6-0.1c2.9,5.8,5.2,11.7,6.7,17.9
	C838.4,991.8,837.4,990.5,836.4,989.2z M849.3,1436.9c0.4,0,0.9,0,1.3,0c-0.1,2.1-0.2,4.2-0.4,6.2
	C849.9,1441.1,849.6,1439,849.3,1436.9z M850.6,1520.9c-5.9,59.4-27.7,117.5-63.7,165.3c-32.8,43.6-78.8,76.4-106.9,123.6
	c-1.5,2.5-3,5.1-4.4,7.8c-39.6,16.7-82.4,30.1-117.7-4.4c-30.9-30.2-40.2-81-26.1-121.2c17.7-50.4,65.9-83.8,112.6-104.6
	c70.5-31.4,190.9-42.2,205.9-134.7C852.8,1475.3,852.8,1498.2,850.6,1520.9z M620.7,1013.5c6.2-1,12.8-0.6,18.6,1.8
	c3.2,1.3,8.4,4.2,9.7,7.8c2.1,6-3.8,8.6-9.4,9.9c-8,1.9-20,1.5-26.4-4.2c-3.7-3.2-5-7.2-4.8-11.3
	C611.9,1015.7,616,1014.2,620.7,1013.5z"/>
<path class="st4" d="M1226.6,2096.5c12.8,19.7,21.6,41.8,26.7,64.7c0.6,2.5,1.1,5,1.5,7.6c0.3-0.1,0.7-0.1,1-0.2
	c-4.1-21.9-11.3-43.1-22.2-62.5c-21.4-38-58.1-65.4-76.6-105.3c-20.1-43.4-10.9-89,11.9-129c2.1-3.7,4.3-7.4,6.5-11
	c2,2.2,4.3,4.2,6.9,5.7c6.5,3.8,13.7,3.5,21,4.1c10.2,0.8,17.2,6.1,23.3,14c10.9,14.3,22.4,32.4,22,51c-0.1,4.4-1.2,9.6-3.5,13.8
	c-1.3-1.3-2.7-2.5-4-3.7c-4.1-3.6-10.7-8.7-15.4-3.1c-3.2,3.9-2.8,10.1,1.4,13.1c5.3,3.7,12.8,1.7,16.9-2.8c0.5-0.6,1-1.2,1.5-1.9
	c10.8,10.6,19.3,23.6,25.1,37.6c-0.2,0.6-0.5,1.2-0.6,1.8c-6.3,19.7-4.1,42.1,4.1,60.8c9.7,22.1,27.6,34.6,46.2,48.6
	c13.7,10.3,24.3,22.7,31.5,37.3c-4,4.3-7.6,9-10.7,14c0.4-0.1,0.9-0.2,1.3-0.3c0.5-0.8,0.9-1.5,1.4-2.3c2.5-3.7,5.4-7.2,8.4-10.5
	c1.5,3.2,2.9,6.5,4.1,10c0.3-0.1,0.7-0.1,1-0.2c-1.2-3.6-2.6-7.2-4.2-10.7c4.6-4.8,9.6-9.3,14.6-13.8c8.5-7.8,17-15.9,22.8-26
	c5-8.8,8-18.7,9.1-28.8c2.1-20.3-4-41.3-17.6-56.6c-14.2-15.9-40-31-34.1-56.2c1.1-4.8,3.7-9,7.7-11.9c0.5-0.4-0.1-1-0.5-0.8
	c-9.4,3.8-19.8-9.7-14.1-18c1.6-2.3,3.7-3.4,6-3.7c-0.3,8.2,5.7,17,14.3,16.9c0.2,0,0.4-0.1,0.5-0.3c0.9-2,1.1-4.1,0.7-6.2
	c3.3,0.6,6.7,0.3,9.9-0.8c0.2-0.1,0.3-0.3,0.3-0.4c0.5-7.1-3.6-13.8-9.8-17.2c-1.5-0.8-3.1-1.4-4.7-1.8c1.3-2.4,3.1-4.6,5.3-6.3
	c0.5-0.4-0.2-1.1-0.7-0.8c-2.4,1.9-4.3,4.2-5.6,6.9c-1-0.2-2.1-0.3-3.2-0.2c-2.7,0.1-4.3,2.2-5.4,4.5c-0.8,1.5-1.2,3.1-1.4,4.8
	c-2.1,0.3-4.1,1.2-5.8,2.9c-7.9,8,1.8,22.9,12,21.3c-5.8,5.3-7.7,13.3-6.9,21.1c1.1,10.6,6.7,19.2,14,26.7
	c8.3,8.6,18,15.8,25.1,25.5c6.5,9,10.7,19.6,12.5,30.5c3.8,23.2-3.4,46.1-19.5,63.2c-8.2,8.6-17.5,16-25.8,24.6
	c-2.9-6-6.3-11.7-10.5-17.1c-11-14.1-26.3-23-40.1-34c-15.7-12.6-27-28.9-32-48.5c-2.3-9-3.1-18.4-2.5-27.7c0.3-4.6,1-9.2,2.1-13.7
	c0.4-1.8,0.9-3.6,1.5-5.3c0.4,1.1,0.9,2.2,1.3,3.3c0.2,0.6,1.1,0.2,0.9-0.4c-0.5-1.4-1.1-2.8-1.7-4.2c0.6-1.3,1.2-2.5,1.8-3.8
	c2.9-5.6,6.5-4.6,11,3.2c-0.5,0.4,0.2,1.2,0.7,0.8c3.2-2.9,1.4-7.8-2.4-9.4c-5.5-2.3-9.4,3.1-11.5,7.9
	c-5.9-13.8-14.4-26.5-25.1-37.1c3.6-5.7,4.1-13.3,3.5-19.8c-1-10.1-5.1-19.6-10.1-28.3c-4.5-7.8-9.5-16-15.7-22.6
	c-6.4-6.9-13.6-9.5-22.9-10.1c-9.7-0.5-18.1-2-24.7-9.6c17.7-28.3,38.6-54.8,51.8-85.7c12.4-28.9,14.2-59.1,7.3-89.1
	c0.9-0.1,1.9-0.1,2.8-0.1c4.5,0.1,8.9,1.5,12.8,3.8c0.3,6.6,1.2,13.3,4.1,18.9c1.6,3.1,4,5.5,7.2,7c0.3,0.1,0.5-0.1,0.6-0.3
	c4.3-10.4-2.2-20.8-11-26.2c-0.2-5,0-10,0.2-14.6c0.9-22.1,6.1-43.7,11.2-65.2c2.4-10,4.7-20,6.7-30.1c2-10.3,4-20.9,3.8-31.5
	c-0.1-8.7-2.1-17-7.8-23.8c-3-3.6-6.5-6.7-8.9-10.7c-2.5-4.3-3.3-9.2-2.5-14.1c3.4-20.4,24.4-29.4,39.8-39.4
	c11.4-7.5,28.5-23.5,19.3-38.7c-7.4-12.3-25.7-7.8-37.5-9c-9-0.9-16.6-5.1-20.7-13.5c-3.6-7.4-4.1-16.4-1.5-24.3
	c6.5-19.6,26.8-29.8,43.9-38.4c8.9-4.5,18.1-9,25.7-15.4c2.6-2.2,5.1-4.8,6.3-8c1.7-4.4,0.5-9.3-0.8-13.6
	c-4.9-16.7-14.1-32.1-26.4-44.4c-6-6-12.8-11.3-20.1-15.6c-0.5-0.3-1.1,0.5-0.6,0.8c17.6,10.6,31.9,26.3,40.6,45
	c2.3,4.8,4.2,9.8,5.6,15c2,6.9,2,12.9-3.3,18.3c-7.9,8-19.4,13-29.4,18c-16.9,8.5-36.2,19-42.6,38.1c-4.7,13.9,0.5,32.5,15.4,37.5
	c7.7,2.6,16.1,1.8,24,2c9.2,0.2,19.8,2.2,22.1,12.7c2.5,11.2-6.2,21.8-14.4,28.2c-8,6.3-17.2,10.7-25.6,16.3
	c-13,8.6-27.8,26.8-18.4,43c2.4,4.1,6,7.3,9,10.9c3.8,4.6,6.1,10,7,15.9c1.7,11.1-0.4,22.9-2.4,33.8c-4.2,23.8-11.1,47-15.4,70.8
	c-2,11.5-3.5,23.1-3.5,34.8c0,2.8,0,5.7,0,8.7c-0.8-0.4-1.6-0.9-2.4-1.2c-4.4-2-8.9-2.6-13.4-2.2c-1-4.1-2.1-8.3-3.4-12.4
	c-10.7-34.1-29.2-65.1-45.4-96.7c-17.3-33.6-33.7-69.7-33.6-108.2c0.1-44.9,23.6-84.4,45.3-122c8.2-14.3,16.4-28.6,23.4-43.5
	c0,0,0.1,0,0.1,0c1.1-0.5,1.2-1.2,0.8-1.9c1.1-2.3,2.2-4.7,3.2-7.1c0.1-0.3,0-0.5-0.3-0.6c0.4-0.1,0.7-0.3,1.1-0.5
	c2.6-1.5,2.5-4.1,0.4-5.9c-0.1-0.1-0.3-0.2-0.4-0.3c0.2-0.5,0.4-1,0.6-1.5c0.5-0.1,0.9-0.2,1.3-0.5c1.8-1.5,1-3.8-0.3-5.6
	c-0.2-3.2-1.3-6.9-4-8.6c-2.6-1.6-5.7-0.3-7.1,2.2c-1.4,2.6-0.5,5.7,1.3,7.9c-0.2,0.5-0.5,1.1-0.6,1.6c-0.8-0.2-1.6-0.4-2.5-0.6
	c-2.6-0.5-8-1.6-9.7,1.2c-1.8,3,0.3,8.1,1.9,10.8c1.8,3,4.7,5.9,8.2,6.9c0.4,0.5,0.8,0.9,1.3,1.3c-0.4,1.7,0.3,3.8,1.5,5.1
	c0.1,0.1,0.1,0.1,0.2,0.1c-16.9,34.2-39.2,65.6-53.7,101c-14.5,35.6-16.5,72.2-5.1,109c17.8,57.8,61.4,109.5,75,168.8
	c-8.8,1-17.2,6-23.8,12.1c-11.8,11.1-20.3,25.9-27.3,40.3c-7.6,15.8-13.1,32.5-16.3,49.7c-2.9,15.8-4.7,32.7-2.2,48.6
	c1.3,8.6,4.2,17.8,9.8,24.7c-13,20.9-24,42.6-28.3,67.1c-7.9,44.2,10.3,83,37.8,116.5C1198.5,2060.9,1214.2,2077.4,1226.6,2096.5z
	 M1231.8,1956.3c-5.5-0.8-8.9-6.1-6.5-11.4c2.8-6.3,9.1-3.7,13.3-0.3c2.1,1.7,4.1,3.5,6.1,5.4
	C1241.9,1954.4,1237.7,1957.2,1231.8,1956.3z M1357.5,1912.2c0.5,0.1,0.9,0.2,1.4,0.4c5.9,1.8,10.9,6.9,12.3,13
	c0.4,1.9,1.1,4-1.1,4.8c-1.9,0.8-4.6,0.6-6.5,0.4c-0.4-0.1-0.9-0.1-1.5-0.2c-1-3.3-3.4-6.2-6.4-8.1
	C1355.4,1918.9,1356.1,1915.4,1357.5,1912.2z M1361.1,1930.4c-1.5-0.4-3-1-3.9-2c-0.8-1-1.2-3.1-1.4-4.6
	C1358.3,1925.5,1360.2,1927.8,1361.1,1930.4z M1350.1,1914.4c1.7-2.4,4-2.8,6.4-2.4c-1.4,3.1-2,6.4-1.8,9.8
	c-2.1-1.1-4.4-1.8-6.7-1.7C1348.2,1918.1,1348.9,1916.1,1350.1,1914.4z M1354.8,1923.1c0,0.2,0,0.4,0.1,0.6c0.2,1.6,0.6,3.7,1.5,5.1
	c0.9,1.4,2.1,1.8,3.7,2.3c0.4,0.1,0.9,0.2,1.3,0.4c0.2,0.8,0.3,1.7,0.2,2.6c0,0.8-0.2,2.7-1.1,3.1c-0.8,0.3-2.4-0.3-3.1-0.5
	c-2.2-0.7-4.1-2.1-5.6-3.9c-2.7-3.1-4.1-7.4-4-11.6C1350.2,1921.1,1352.7,1921.8,1354.8,1923.1z M1260,1697.5c2.3,3.6,3.5,7.8,3,12
	c0,0.2-0.4,3.3-0.9,3.5c-0.8,0.4-1.6-0.4-2.2-0.8c-2.4-1.5-4-4.4-5-7c-2-4.9-2.9-10.5-3.2-16.1
	C1255.1,1691.4,1258,1694.2,1260,1697.5z M1219,1300.2c-0.3-0.1-0.6-0.2-0.9-0.3c0.2-0.3,0.6-0.7,0.9-0.9c0.2-0.1,0.4-0.1,0.7-0.2
	c0.2,0.1,0.4,0.3,0.5,0.9C1220.3,1300.8,1220,1300.5,1219,1300.2z M1224.5,1292c-1,2.2-2,4.4-3,6.6c-0.2-0.2-0.5-0.3-0.7-0.4
	c1.1-0.7,2-1.9,2.2-3.4c0.2-1.3-0.3-2.4-1.1-3.2c0.4,0.1,0.7,0.2,1.1,0.3c-0.1,0.4-0.1,0.8-0.1,1.2c0,0.6,1,0.7,1,0.1
	c0-0.4,0-0.8,0.1-1.2c0.2,0,0.4,0,0.6,0C1224.5,1291.8,1224.5,1291.9,1224.5,1292z M1226.5,1288.4c-0.2,1.5-0.3,2.1-1.9,2.4
	c-0.1,0-0.3,0-0.4,0.1c0.4-1.7,1-3.2,1.7-4.8C1226.8,1286.7,1226.7,1286.7,1226.5,1288.4z M1225.5,1284.5c-2.2-1.6-4.6-2.8-7.2-3.6
	c0.1-0.4,0.2-0.7,0.4-1.1c0.2,0.2,0.3,0.3,0.5,0.5c1.3,1.1,4.3,3.1,6.7,3.3C1225.7,1283.9,1225.6,1284.2,1225.5,1284.5z
	 M1226.7,1280c-0.1,0.8-0.3,1.5-0.5,2.3c-0.2,0.2-0.5,0.2-0.9,0.1c-1.8,0-4.3-1.7-5.5-2.8c-0.2-0.2-0.5-0.4-0.7-0.7
	c0.6-1.2,1.5-2.2,2.6-2.8c1.6-0.9,3.3-0.1,4.5,1.1c0.2,0.2,0.4,0.4,0.6,0.7C1226.8,1278.6,1226.8,1279.3,1226.7,1280z M1217.3,1272
	c1.6-4,6.2-3.3,8,0c0.7,1.3,1.1,2.7,1.3,4.1c-0.2-0.1-0.3-0.3-0.5-0.4c-2.8-2.3-5.9-0.5-7.6,2.2c0,0-0.1,0.1-0.1,0.2
	C1217.2,1276.3,1216.5,1274.1,1217.3,1272z M1217.9,1282.5c0-0.2,0.1-0.5,0.1-0.7c2.5,0.8,4.9,2,7.1,3.6c-0.7,1.8-1.5,3.5-1.9,5.4
	c-1-0.2-2-0.6-2.8-1.3C1218.2,1287.9,1217.6,1285.2,1217.9,1282.5z M1206.8,1289.2c-0.7-1.7-1.6-4.6-1-6.5c0.9-2.9,5.4-2.3,7.8-1.9
	c1.2,0.2,2.3,0.4,3.5,0.8c-0.5,2.4-0.3,5,1.1,7.1c0.4,0.6,0.9,1.2,1.5,1.7c-0.3-0.1-0.6-0.1-0.9-0.1c-3.3-0.2-5.4,3.2-4.8,6.2
	c0.1,0.4,0.2,0.8,0.4,1.2C1210.9,1296,1208.1,1292.6,1206.8,1289.2z M1215.8,1297.9c-0.8-1.1-1.1-2.4-0.7-3.9
	c0.7-2.8,4.6-4.3,6.5-1.5C1223.9,1296.3,1218.6,1298.6,1215.8,1297.9z M1217.6,1300.8c0.8,0.4,1.7,0.7,2.5,0.7c-0.5,1-1,2-1.4,3
	C1217.7,1303.4,1217.1,1302.1,1217.6,1300.8z M1165.2,1809.8c1.3-20.9,6-41.5,13.8-60.9c7.4-18.5,17.6-38.1,32.3-51.9
	c6.3-5.9,14.5-11.1,23.3-12c2.7,11.9,4.2,24.1,4,36.8c-0.9,53.6-36.2,93.5-63.3,137C1164.5,1845.4,1164.2,1826.1,1165.2,1809.8z"/>
<path class="st4" d="M1245.7,2463.9c3.5,1.4,7,2.7,10.7,3.5c1.1,2.9,2.7,5.6,4.6,7.8c3.2,3.9,7.1,8.1,12.6,7.7
	c-3.7,8.4-1.5,18.4,3.2,26.4c4.3,7.3,10.6,12.4,17.5,16.6c0.5-0.1,1-0.2,1.5-0.3c-10.9-6.3-20-14.4-22.7-28.2
	c-1-5-0.6-10.1,1.6-14.6c2.6-0.6,5.9-2.6,3.1-5.2c-0.2-0.2-0.5-0.3-0.7,0c-1.2,1.4-2.2,2.8-3,4.4c-1.6,0.3-3.3,0.2-4.8-0.5
	c-2.1-0.9-3.8-2.8-5.4-4.4c-1.9-2-3.7-4.2-5.1-6.6c-0.5-0.9-1-1.8-1.4-2.7c5.3,1,10.9,0.8,15.5-2.3c2.2-1.5,4.1-3.7,5.3-6.1
	c0.2,0.1,0.5,0.3,0.7,0.4c3.7,2,7.7,2.6,11.8,1.3c3.7-1.2,7.4-3.7,9.1-7.3c5.2-11-14.7-12.2-20.8-12.5c-3.7-0.2-7.4,0-11,0.4
	c-1.5-8.7,1.1-18.1,8.4-23.3c0.5-0.4-0.1-1.1-0.7-0.8c-7.5,5.4-10.2,15.2-8.7,24.2c-2.8,0.3-5.6,0.8-8.3,1.5c-5.7,1.4-12.3,3.2-17,7
	c-3.4,2.8-4.9,7.3-1.4,10.7C1241.7,2462.2,1243.7,2463.1,1245.7,2463.9z M1277.4,2478.5c1.1,1.4-0.6,2.5-2.1,2.9
	C1275.9,2480.4,1276.6,2479.4,1277.4,2478.5z M1278.1,2455.6c-0.1,0.7-0.2,1.4-0.5,2c0,0,0,0-0.1,0c-3.9-2.7-6.7-6.7-8.4-11.1
	C1274.2,2446.5,1278.9,2449.3,1278.1,2455.6z M1279.7,2442.1c2.6,0.2,5.3,0.5,7.9,0.9c2.8,0.5,6.2,0.9,8.7,2.5
	c3.7,2.2,3.8,6.2,1.4,9.4c-2.3,2.9-5.9,4.9-9.5,5.5c-3.4,0.6-6.8-0.4-9.7-2.2c0.5-1.4,0.8-3,0.6-4.6c-0.5-5.9-5.3-8.3-10.3-8.2
	c-0.3-1-0.6-2-0.8-3C1271.9,2442,1275.8,2441.9,1279.7,2442.1z M1268.2,2446.5c1.7,4.9,4.8,9.2,9.1,12.1c-1.5,3.3-4.5,6-7.7,7.3
	c-4,1.7-8.4,1.4-12.6,0.5c-2.5-6.9-1.6-14.8,5.7-18.5C1264.4,2447.1,1266.3,2446.6,1268.2,2446.5z M1248,2447.6
	c6.1-2.6,12.5-4.3,19-5.1c0.2,1,0.5,2,0.8,2.9c-2,0.2-4.1,0.7-5.8,1.7c-7.7,4-8.5,11.9-6.1,19.1c-1.1-0.3-2.2-0.6-3.3-0.9
	c-4-1.3-10.8-2.8-12.9-6.9C1237,2453,1244.1,2449.3,1248,2447.6z"/>
<path class="st4" d="M107.7,2067.1c-18.5-41.1-21.2-86.6-19.8-131.1c1.5-45.1,7.2-90.1,6-135.3c-1-39.9-8-81.1-29.4-115.4
	c11.8-19.3,14.8-43,16.8-65.2c2-22.8,2.4-46.9-6-68.7c-8.6-22.2-27-36.3-44.3-51.6c-16.2-14.3-30.9-31.6-31.5-54.4
	c-0.3-10.1,3-20.2,10.8-26.9c8.3-7.1,19.4-9.1,28.5-14.8c7.6-4.7,12.7-12.2,13.4-21.2c0.8-9.9-3-19.8-7.8-28.2
	c-10.8-19-30.6-32.5-38.5-53.3c9.8,2.4,20.1-5.5,22.4-15.1c1.8,1.3,3.9,2.1,5.6,2.1c3.7-0.1,6.2-3.2,7.3-6.5c3.6,0.9,7.7,0.2,11-1.9
	c1.5-1,4.8-3.6,4.6-5.6c-0.2-2.5-4.1-6.1-5.9-7.6c-3.9-3.3-8.7-5.4-13.8-6.3c-0.1-0.3-0.3-0.5-0.4-0.8c-0.1-0.3-0.5-0.4-0.8-0.2
	c-0.2,0.2-0.4,0.4-0.6,0.7c-1-0.1-2-0.2-3-0.3c-14.5-0.5-27.6,8.1-29.9,22.9c-0.9,5.8-0.2,11.5,1.6,16.9c-0.1,0-0.2-0.1-0.3-0.1
	c-0.6-0.3-0.9,0.7-0.3,0.9c0.4,0.2,0.7,0.3,1.1,0.4c4.8,13.2,15.7,25.2,24.5,34.7c12.9,14,30.4,38.6,18.8,58.1
	c-5.5,9.2-15.9,12.7-25.2,16.7c-8,3.5-15.5,8-19.9,15.9c-8.1,14.6-3.9,33.3,3.6,47.2c9.9,18.2,28,30.1,42.9,43.9
	c8.3,7.7,16,16.2,21.3,26.4c5.3,10.1,8.2,21.2,9.7,32.4c2.9,22.8,0.8,47-3.2,69.6c-2.3,13.4-6.3,27-13.3,38.6
	c-0.8-1.2-1.6-2.4-2.4-3.6c-11.2-16.6-28.3-32.1-49.6-31.1c-16.7,0.7-33.4,12.1-33,30.2c0.4,16.9,14.8,32.5,31.3,35.1
	c20.9,3.4,41.1-9.9,52.4-26.5c0.5-0.7,0.9-1.4,1.4-2.2c19.7,31.1,26.9,69.8,28.6,106c2,42.1-2.8,84.2-5,126.2
	c-2.1,40.8-2.3,82.7,9.2,122.3c2.7,9.2,6,18.2,9.9,26.9C107.1,2068.1,108,2067.7,107.7,2067.1z M48.1,1265.4c2.6,1.8,8.9,6.7,7,10.2
	c-2.4,4.4-8.6,6-13.5,4.9c0.1-0.2,0.1-0.5,0.2-0.7c1.3-6.3-1.2-12.9-4-18.6C41.4,1261.9,45,1263.3,48.1,1265.4z M35.5,1261.2
	c1.5-0.9,1.7,1,2.3,2.3c1.3,2.9,2.4,5.9,3,9.1c0.4,2.1,0.4,5-0.2,7.7c-0.4-0.1-0.9-0.3-1.3-0.5c-5.4-2.7-7.6-9.7-5.5-15.3
	C34,1263.6,34.6,1261.7,35.5,1261.2z M4.8,1297.1c-3-10.4-1.6-22.7,7.1-30c6.2-5.3,14.9-7.3,22.9-6.4c-3.4,4.6-3.7,11.2-0.4,16
	c1.5,2.2,3.6,3.7,6,4.5c-1,3.4-3,6.1-6.9,5.8c-1.5-0.1-3.3-0.8-4.8-1.8c0.6-3.2,0.3-6.5-1.1-9.6c-0.1-0.3-0.4-0.3-0.7-0.2
	c-5.3,2.3-3,7,0.8,10c-0.1,0.5-0.2,1-0.4,1.5c-2.8,8.8-12.5,15.6-21.6,13C5.3,1299,5,1298,4.8,1297.1z M27.8,1284.6
	c-1.5-1.2-2.7-2.8-3-4.5c-0.2-1,0-2.9,1.3-3.2c1.2-0.3,1.3,0.9,1.6,2.1C28.1,1280.9,28.1,1282.7,27.8,1284.6z M43,1706.2
	c-18.2,11.6-42.1,11.3-55.8-6.9c-5.9-7.8-9-18.1-6.1-27.8c2.9-9.6,11.3-16.3,20.6-19.2c21.5-6.6,41.4,6,54.3,22.4
	c2.7,3.4,5.1,6.8,7.4,10.4C58.3,1693.4,51.7,1700.7,43,1706.2z"/>
<path class="st4" d="M1369.7,2821.1c-18.5-41.1-21.2-86.6-19.8-131.1c1.5-45.1,7.2-90.1,6-135.3c-1-39.9-8-81.1-29.4-115.4
	c11.8-19.3,14.8-43,16.8-65.2c2-22.8,2.4-46.9-6-68.7c-8.6-22.2-27-36.3-44.3-51.6c-16.2-14.3-30.9-31.6-31.5-54.4
	c-0.3-10.1,3-20.2,10.8-26.9c8.3-7.1,19.4-9.1,28.5-14.8c7.6-4.7,12.7-12.2,13.4-21.2c0.8-9.9-3-19.8-7.8-28.2
	c-10.8-19-30.6-32.5-38.5-53.3c9.8,2.4,20.1-5.5,22.4-15.1c1.8,1.3,3.9,2.1,5.6,2.1c3.7-0.1,6.2-3.2,7.3-6.5c3.6,0.9,7.7,0.2,11-1.9
	c1.5-1,4.8-3.6,4.6-5.6c-0.2-2.5-4.1-6.1-5.9-7.6c-3.9-3.3-8.7-5.4-13.8-6.3c-0.1-0.3-0.3-0.5-0.4-0.8c-0.1-0.3-0.5-0.4-0.8-0.2
	c-0.2,0.2-0.4,0.4-0.6,0.7c-1-0.1-2-0.2-3-0.3c-14.5-0.5-27.6,8.1-29.9,22.9c-0.9,5.8-0.2,11.5,1.6,16.9c-0.1,0-0.2-0.1-0.3-0.1
	c-0.6-0.3-0.9,0.7-0.3,0.9c0.4,0.2,0.7,0.3,1.1,0.4c4.8,13.2,15.7,25.2,24.5,34.7c12.9,14,30.4,38.6,18.8,58.1
	c-5.5,9.2-15.9,12.7-25.2,16.7c-8,3.5-15.5,8-19.9,15.9c-8.1,14.6-3.9,33.3,3.6,47.2c9.9,18.2,28,30.1,42.9,43.9
	c8.3,7.7,16,16.2,21.3,26.4c5.3,10.1,8.2,21.2,9.7,32.4c2.9,22.8,0.8,47-3.2,69.6c-2.3,13.4-6.3,27-13.3,38.6
	c-0.8-1.2-1.6-2.4-2.4-3.6c-11.2-16.6-28.3-32.1-49.6-31.1c-16.7,0.7-33.4,12.1-33,30.2c0.4,16.9,14.8,32.5,31.3,35.1
	c20.9,3.4,41.1-9.9,52.4-26.5c0.5-0.7,0.9-1.4,1.4-2.2c19.7,31.1,26.9,69.8,28.6,106c2,42.1-2.8,84.2-5,126.2
	c-2.1,40.8-2.3,82.7,9.2,122.3c2.7,9.2,6,18.2,9.9,26.9C1369.1,2822.1,1370,2821.7,1369.7,2821.1z M1310.1,2019.4
	c2.6,1.8,8.9,6.7,7,10.2c-2.4,4.4-8.6,6-13.5,4.9c0.1-0.2,0.1-0.5,0.2-0.7c1.3-6.3-1.2-12.9-4-18.6
	C1303.4,2015.9,1307,2017.3,1310.1,2019.4z M1297.5,2015.2c1.5-0.9,1.7,1,2.3,2.3c1.3,2.9,2.4,5.9,3,9.1c0.4,2.1,0.4,5-0.2,7.7
	c-0.4-0.1-0.9-0.3-1.3-0.5c-5.4-2.7-7.6-9.7-5.5-15.3C1296,2017.6,1296.6,2015.7,1297.5,2015.2z M1266.8,2051.1
	c-3-10.4-1.6-22.7,7.1-30c6.2-5.3,14.9-7.3,22.9-6.4c-3.4,4.6-3.7,11.2-0.4,16c1.5,2.2,3.6,3.7,6,4.5c-1,3.4-3,6.1-6.9,5.8
	c-1.5-0.1-3.3-0.8-4.8-1.8c0.6-3.2,0.3-6.5-1.1-9.6c-0.1-0.3-0.4-0.3-0.7-0.2c-5.3,2.3-3,7,0.8,10c-0.1,0.5-0.2,1-0.4,1.5
	c-2.8,8.8-12.5,15.6-21.6,13C1267.3,2053,1267,2052,1266.8,2051.1z M1289.8,2038.6c-1.5-1.2-2.7-2.8-3-4.5c-0.2-1,0-2.9,1.3-3.2
	c1.2-0.3,1.3,0.9,1.6,2.1C1290.1,2034.9,1290.1,2036.7,1289.8,2038.6z M1305,2460.2c-18.2,11.6-42.1,11.3-55.8-6.9
	c-5.9-7.8-9-18.1-6.1-27.8c2.9-9.6,11.3-16.3,20.6-19.2c21.5-6.6,41.4,6,54.3,22.4c2.7,3.4,5.1,6.8,7.4,10.4
	C1320.3,2447.4,1313.7,2454.7,1305,2460.2z"/>
</svg>
