<svg xmlns="http://www.w3.org/2000/svg" viewBox="0 0 1558.62 1581.15"><defs><style>.cls-1{fill:#ec008c;}.cls-1,.cls-2,.cls-3,.cls-4{stroke:#262262;stroke-miterlimit:10;}.cls-2{fill:#db6050;}.cls-3{fill:#f494ac;}.cls-4{fill:#f48584;}.cls-5{fill:#262262;}</style></defs><title>hearts</title><g id="Layer_2" data-name="Layer 2"><g id="Layer_1-2" data-name="Layer 1"><path class="cls-1" d="M624.8,319.67c0,.83-.1,1.66-.13,2.5C624.75,321.33,624.78,320.5,624.8,319.67Z"/><path class="cls-2" d="M141.21,1185.37c-16-11-35-12-50-2-9.95,6-14,16.91-13,28.84.34.39.67.78,1,1.16-.34-.38-.67-.77-1-1.16a.92.92,0,0,1,0,.16.92.92,0,0,0,0-.16c-6.58-7.6-12.47-15-22-17.84-20-6-45,1-52,20-17,49,39,83,77,102,17.31,9.62,36.46,25.72,36.12,46.51,2.17-36.65,30.23-62.21,45.88-93.51C178.21,1239.37,170.21,1204.37,141.21,1185.37Z"/><path class="cls-1" d="M107.23,664.06c-19.31-2-36.47,6.21-44.86,22.16-5.88,10-4.17,21.53,2.38,31.55l1.44.54-1.44-.54a1,1,0,0,0,.08.14,1,1,0,0,1-.08-.14c-9.42-3.52-18.13-7.19-27.85-5.14-20.43,4.3-39,22.41-36.09,42.44,8.52,51.16,74,54.23,116.42,52.73,19.8.16,44.32,5.13,54,23.55-15.63-33.22-3.22-69.1-4.46-104.06C165.56,693.77,141.79,666.86,107.23,664.06Z"/><path class="cls-3" d="M226,207.55c-16-11-35-12-50-2-9.95,6-14,16.91-13,28.84.34.39.67.78,1,1.16-.34-.38-.67-.77-1-1.16,0,.06,0,.11,0,.16s0-.1,0-.16c-6.58-7.6-12.47-15-22-17.84-20-6-45,1-52,20-17,49,39,83,77,102,17.31,9.62,36.46,25.72,36.12,46.51,2.17-36.65,30.23-62.21,45.88-93.51C263,261.55,255,226.55,226,207.55Z"/><path class="cls-2" d="M396.76,479.25c-8.39-17.51-24.37-27.84-42.35-26.64-11.61.21-20.53,7.7-25.65,18.52.1.5.19,1,.3,1.51-.11-.51-.2-1-.3-1.51,0,.05-.05.09-.07.14s.05-.09.07-.14c-1.92-9.87-3.35-19.21-10.18-26.42-14.35-15.17-39.52-21.56-55.05-8.57-39.15,34-7.54,91.4,16,126.8,10.21,17,18.8,40.46,8.15,58.32,20.14-30.7,57.2-38.88,86.36-58.22C401.94,544.5,412.44,510.17,396.76,479.25Z"/><path class="cls-1" d="M454,20.56c-16-11-35-12-50-2-9.95,6-14,16.9-13,28.84.34.38.67.77,1,1.16-.34-.39-.67-.78-1-1.16a.81.81,0,0,1,0,.16.81.81,0,0,0,0-.16c-6.58-7.6-12.47-15-22-17.84-20-6-45,1-52,20-17,49,39,83,77,102,17.32,9.62,36.47,25.71,36.13,46.5,2.17-36.65,30.23-62.21,45.87-93.5C491,74.56,483,39.56,454,20.56Z"/><path class="cls-4" d="M787.31,9.42c-16-11-35-12-50-2-9.95,6-14,16.9-13,28.83l1,1.17-1-1.17a1,1,0,0,1,0,.17,1,1,0,0,0,0-.17c-6.57-7.6-12.47-15-22-17.83-20-6-45,1-52,20-17,49,39,83,77,102,17.32,9.61,36.47,25.71,36.13,46.5,2.17-36.65,30.23-62.21,45.87-93.5C824.31,63.42,816.31,28.42,787.31,9.42Z"/><path class="cls-4" d="M333.14,56.15c-16-11-35-12-50-2-10,6-14,16.9-13,28.83l1,1.17-1-1.17a1,1,0,0,0,0,.17,1,1,0,0,1,0-.17c-6.58-7.6-12.48-15-22-17.83-20-6-45,1-52,20-17,49,39,83,77,102,17.31,9.61,36.46,25.71,36.12,46.5,2.17-36.65,30.23-62.21,45.88-93.5C370.14,110.15,362.14,75.15,333.14,56.15Z"/><path class="cls-1" d="M1424.55,192.06c-10.49-16.34-27.62-24.62-45.32-21.21-11.49,1.65-19.42,10.17-23.17,21.54l.48,1.47-.48-1.47a1,1,0,0,0,0,.16,1,1,0,0,1,0-.16c-3.12-9.55-5.69-18.64-13.36-25-16.11-13.28-41.87-16.51-55.69-1.71-34.65,38.59,3.8,91.63,31.47,123.87,12.23,15.57,23.65,37.83,15.29,56.86,16.2-32.94,52-45.64,78.52-68.42C1437.74,256.18,1443.92,220.81,1424.55,192.06Z"/><path class="cls-2" d="M1184.9,74c-10.49-16.34-27.62-24.62-45.32-21.21-11.49,1.65-19.42,10.17-23.17,21.54l.48,1.47-.48-1.47a1,1,0,0,0-.05.16,1,1,0,0,1,.05-.16c-3.12-9.55-5.69-18.64-13.36-25-16.11-13.28-41.87-16.51-55.69-1.71-34.65,38.59,3.8,91.63,31.47,123.87,12.23,15.57,23.65,37.83,15.29,56.86,16.2-32.94,52-45.64,78.51-68.42C1198.09,138.14,1204.27,102.77,1184.9,74Z"/><path class="cls-1" d="M934,107.57C923.53,91.23,906.4,82.94,888.7,86.35,877.21,88,869.28,96.53,865.53,107.9l.48,1.46-.48-1.46a.88.88,0,0,1,0,.15.88.88,0,0,0,0-.15c-3.12-9.56-5.69-18.65-13.36-25-16.11-13.28-41.87-16.51-55.69-1.71-34.65,38.59,3.8,91.63,31.47,123.87,12.24,15.57,23.66,37.83,15.29,56.87,16.2-32.95,52-45.64,78.52-68.43C947.21,171.68,953.39,136.32,934,107.57Z"/><path class="cls-3" d="M1405.21,838.45c-10.49-16.34-27.62-24.63-45.32-21.22-11.49,1.65-19.42,10.17-23.17,21.55l.48,1.46-.48-1.46a.88.88,0,0,1,0,.15.88.88,0,0,0,0-.15c-3.12-9.56-5.69-18.65-13.36-25-16.11-13.28-41.87-16.51-55.69-1.71-34.65,38.59,3.8,91.63,31.47,123.87,12.24,15.57,23.65,37.83,15.29,56.86,16.2-32.94,52-45.63,78.52-68.42C1418.4,902.56,1424.58,867.2,1405.21,838.45Z"/><path class="cls-3" d="M1443.94,398c-16-11-35-12-50-2-10,6-14,16.91-13,28.84.34.39.67.78,1,1.16-.34-.38-.67-.77-1-1.16a.92.92,0,0,1,0,.16.92.92,0,0,0,0-.16c-6.58-7.6-12.47-15-22-17.84-20-6-45,1-52,20-17,49,39,83,77,102,17.31,9.62,36.46,25.72,36.12,46.51,2.17-36.65,30.23-62.21,45.88-93.51C1480.94,452,1472.94,417,1443.94,398Z"/><path class="cls-2" d="M1529.1,664.29c-8.66-17.38-24.79-27.47-42.76-26-11.6.4-20.4,8-25.36,18.91.11.5.21,1,.32,1.51-.11-.5-.21-1-.32-1.51l-.07.15.07-.15c-2.07-9.83-3.65-19.15-10.58-26.26-14.59-14.94-39.85-20.94-55.18-7.72-38.62,34.62-6.13,91.5,17.9,126.54,10.47,16.81,19.42,40.17,9.05,58.19,19.66-31,56.6-39.75,85.45-59.54C1535.28,729.46,1545.25,695,1529.1,664.29Z"/><path class="cls-1" d="M1267.21,479.66c-18.32-6.42-36.92-2.4-48.77,11.19-8,8.37-9,20-5,31.24l1.27.85-1.27-.85a.88.88,0,0,0,0,.15.88.88,0,0,1,0-.15c-8.35-5.61-16-11.19-25.9-11.45-20.88-.54-43.17,12.77-44.94,32.94-3.55,51.74,59.41,69.87,101.06,78.23,19.23,4.74,41.93,15.25,47,35.4-7.51-35.93,12.86-68,19.75-102.26C1317.08,522.07,1300.18,490.39,1267.21,479.66Z"/><path class="cls-2" d="M1390.62,1323.76c-16-11-35-12-50-2-10,6-14,16.9-13,28.84.33.39.67.78,1,1.16-.34-.38-.68-.77-1-1.16a.81.81,0,0,0,0,.16.81.81,0,0,1,0-.16c-6.58-7.6-12.48-15-22-17.84-20-6-45,1-52,20-17,49,39,83,77,102,17.31,9.62,36.46,25.72,36.12,46.51,2.17-36.65,30.23-62.21,45.88-93.51C1427.62,1377.76,1419.62,1342.76,1390.62,1323.76Z"/><path class="cls-3" d="M1528.71,1104.71c-16-11-35-12-50-2-10,6-14,16.9-13,28.84.34.38.67.77,1,1.16-.34-.39-.67-.78-1-1.16,0,0,0,.1,0,.16s0-.11,0-.16c-6.58-7.6-12.47-15-22-17.84-20-6-45,1-52,20-17,49,39,83,77,102,17.31,9.62,36.46,25.71,36.12,46.5,2.17-36.65,30.23-62.21,45.88-93.5C1565.71,1158.71,1557.71,1123.71,1528.71,1104.71Z"/><path class="cls-1" d="M1426.55,1125.52c-8.7-17.36-24.86-27.4-42.83-25.89-11.6.43-20.38,8.07-25.31,19,.11.5.21,1,.32,1.51-.11-.51-.21-1-.32-1.51l-.07.15.07-.15c-2.09-9.83-3.69-19.14-10.65-26.23-14.62-14.91-39.89-20.85-55.19-7.59-38.54,34.71-5.91,91.52,18.2,126.5,10.52,16.78,19.52,40.12,9.19,58.16,19.59-31,56.51-39.89,85.31-59.74C1432.89,1190.67,1442.78,1156.16,1426.55,1125.52Z"/><path class="cls-1" d="M332.22,1263.77c-11.81-15.42-29.57-22.25-46.93-17.39-11.31,2.6-18.5,11.75-21.3,23.39l.6,1.42-.6-1.42,0,.16,0-.16c-3.9-9.26-7.22-18.11-15.38-23.77-17.16-11.9-43.1-13-55.64,2.91-31.34,41.33,11.38,91,41.63,120.83,13.48,14.51,26.7,35.75,19.94,55.41,13.42-34.18,48-49.79,72.58-74.7C350.67,1326.57,353.91,1290.81,332.22,1263.77Z"/><path class="cls-4" d="M319.75,996.33c-16-11-35-12-50-2-9.95,6-14,16.9-13,28.84.34.39.67.78,1,1.16-.34-.38-.67-.77-1-1.16a.92.92,0,0,1,0,.16.92.92,0,0,0,0-.16c-6.58-7.6-12.47-15-22-17.84-20-6-45,1-52,20-17,49,39,83,77,102,17.31,9.62,36.46,25.72,36.12,46.5,2.17-36.64,30.23-62.21,45.88-93.5C356.75,1050.33,348.75,1015.33,319.75,996.33Z"/><path class="cls-5" d="M1464.13,1324.3a74.06,74.06,0,0,0-17.86-26.5c-17-16.45-40-24.48-63.32-26-15.14-.94-29.68,1.21-44.57,3.64-8.6,1.41-19.53,1.77-23.8-7.49-1-2.14-1.8-6.76-.2-8.84.5,4.93,4.78,9.83,8.94,12.39a1,1,0,0,0,1.39-.28,10.19,10.19,0,0,0-1-11c-1.29-1.75-4-4-6.65-4.45.06-.13.09-.25.15-.38a6.59,6.59,0,0,1,2-2.65,9.28,9.28,0,0,0,8.46,6.92,1,1,0,0,0,1-.67c2.77-5.71-3.44-10.69-8.6-9.06a1.17,1.17,0,0,0-1,.39,7,7,0,0,0-1.46,1,9.41,9.41,0,0,0-3.06,4.7l0,0c-3.14,1.36-3.43,7-2.84,9.67a15.79,15.79,0,0,0,7.64,10.26c5.6,3,12.44,2.53,18.5,1.58,8-1.24,15.82-2.83,23.88-3.49,16.57-1.37,33.54-.2,49.41,5,26.57,8.73,50.06,30.31,54.57,58.81,2.8,17.73-1.25,35.69-4.62,53l-9.86,50.91c-3.15,16.26-7.84,32.94-8.41,49.55-.41,11.67,2,24,12.38,30.79a1,1,0,0,0,1.11-1.66c-10.43-6.8-12.1-19.53-11.4-31,.76-12.74,4-25.38,6.45-37.88q4.29-22.1,8.56-44.19c2.83-14.57,6.21-29.19,7.89-44C1469.3,1350.31,1468.93,1336.84,1464.13,1324.3Zm-137.46-69.87c1,.91.95,1.59-.27,2.06-.76,1.14-1.56,1.07-2.39-.23a6.35,6.35,0,0,1-2.93-4.29C1323.08,1251.58,1326,1252.4,1326.67,1254.43Zm-8.69,3.88c4.49,1.18,6.83,6.75,5.45,10.92-3.76-2.56-7.45-6.54-7-11.11A5.35,5.35,0,0,1,1318,1258.31Z"/><path class="cls-5" d="M1334.06,1002.78c-5.53-1.11-13.74-1.29-18.57-5.15a5.67,5.67,0,0,0,2.59-3c1.59-4.36-2.2-8.69-6.51-8.81a1,1,0,0,0-1,.67,9.41,9.41,0,0,0,1.36,9.76,5.25,5.25,0,0,1-4.6-4.24c-.6-2.94-.22-6.56,3.44-7.38,2.75-.62,6.3,1.82,8.15,3.52.94.86,2.45-.45,1.5-1.33-2.71-2.49-9.62-6.42-13.21-3.52s-2.48,12,1.33,14.28a7.08,7.08,0,0,0,5.27.7,21.63,21.63,0,0,0,9.58,4.83c5.64,1.22,11.88.92,17,3.87,5.34,3.08,7.29,8.84,6.48,14.73-3.9,28-39.58,22.22-59.31,27.65s-36.63,19.3-46.37,37.07c-4.83,8.83-8.36,19.06-8.63,29.2-.34,12.75,7.91,20.77,14,31,12.91,21.57,16.54,50.4,6.44,73.82a56,56,0,0,1-3.19,6.27,50.55,50.55,0,0,0-5.58-9.32c-5.89-7.76-14.54-12.94-24.45-12.54-8.29.34-17.06,4.39-20.71,12.21-8.77,18.78,16.12,33.92,32.23,28.41a36.4,36.4,0,0,0,18.21-14.19c7.94,20.93,3.57,46.46-3.14,66.79-17.71,53.6-64.84,106.63-47.49,166.53.35,1.23,2.32.87,2-.36-18-62,33.47-116.12,49.53-172.37,5.49-19.22,8.39-43.26.52-62.68,7.67-12.37,10.3-28.85,9.7-42.3a88.49,88.49,0,0,0-9.82-36.83c-2.9-5.57-6.62-10.46-10.12-15.64-5.5-8.12-7-16.26-5.33-25.91,4.5-25.11,23.56-46.82,47.38-55.54,21.33-7.81,60.3.27,65.93-30C1350.66,1012.37,1344.34,1004.84,1334.06,1002.78Zm-18-11.93c1,2.92-.23,4.69-2.1,5.26a10.16,10.16,0,0,1-2.1-4.43C1310.74,986.55,1315,987.8,1316,990.85Zm-87.91,253.52c-10.43,2.3-23.06-3.53-27.35-13.51-4.77-11.12,4-21.18,14.69-23.42,11.92-2.52,22.48,3.77,28.9,13.61a52.31,52.31,0,0,1,4.18,7.8C1243.7,1236.23,1236.85,1242.46,1228.13,1244.37Z"/><path class="cls-5" d="M1541.33,1063.26c-5.2-13.94-20-20.32-33.91-22-20-2.48-43,4.29-60.58-8.47-8.18-5.94-14.57-15.94-11.36-26.33,2.66-8.59,10.59-14,17.75-18.72,2.14-1.39,4.4-2.88,6.65-4.48,11.11,16.81,25.95,30.76,45.42,39.13a77.91,77.91,0,0,0,30.36,6.35c1.28,0,1.44-2,.15-2-25-.17-47.2-13-63.68-31.14a121.81,121.81,0,0,1-10.61-13.53c8.64-6.4,16.6-14.61,15.65-26-.5-6-4.45-10.23-9.79-12.66-4.38-2-9.24-2.91-13-6.1-3.52-3-5.29-7.27-5.92-11.78-1.35-9.61,1.49-19.36,3.6-28.64,2.38-10.5,4.81-21,7.14-31.48,3-13.61,6-31.4-5.12-42.32-5-4.92-11.65-7.09-17.91-9.92,3.61-4.08,4.69-9.88,1.46-14.83a14.2,14.2,0,0,0-1.66-2.1,8.17,8.17,0,0,0,.83-6.31,6.45,6.45,0,0,0-1.28-2.24c.84-3.85.71-7.83-1.44-9.91-4.16-4-10.09.54-11.2,4.93a19,19,0,0,0-.39,5.44,10,10,0,0,0-3.06,5.59l-.2.12A1,1,0,0,0,1419,795c.07.17.15.31.22.47v.17c-5.64-7.17-13.87-11.7-22.49-14.58-10.74-3.58-22-4.9-33.15-6.84-3.16-.54-6.3-1.15-9.44-1.8,6.57-18.59,6.58-39.58-.75-57.93-4.67-11.69-12.39-21.83-20.51-31.33-7.06-8.26-14.18-18.4-25.51-20.57-7.12-1.36-15.62-.07-21.45-5,3.24-.12,6.52-.59,8.27-3a8.72,8.72,0,0,0,.37-9.34c-3.72-6-13.67-4.07-14.92,2.84-.05.28-.08.55-.11.82a27.35,27.35,0,0,1,.83-7.2A24.8,24.8,0,0,1,1292.09,626c1.11-.63.24-2.44-.87-1.79a27,27,0,0,0-11.68,33,1,1,0,0,0,1.08.54c.74-.07,1.55-.09,2.4-.11a23.34,23.34,0,0,0,12.45,5.71c7,.94,14,.56,20.16,4.72,5.48,3.71,9.75,9.48,14,14.43,8.65,10,17,20.52,21.93,32.88a78.74,78.74,0,0,1,5.12,35.5,82,82,0,0,1-4.58,21.13q-15.17-3.25-30-8a313.65,313.65,0,0,1-77-36.9c-21.46-14.19-40.46-31.59-60.93-47.1-16.47-12.49-34.47-24.32-54.58-29.84-.44-3.09-.9-6.16-1.39-9.23-4.73-29.43-13-57.77-23-85.8-16.88-47.4-41.34-111,.35-153,31.6-31.86,83.87-31.48,124.49-21.29,25.13,6.31,51.4,21.22,78,14.6,16.41-4.08,29.16-20.66,28-37.8a21.64,21.64,0,0,0-9.51-16.94,14.41,14.41,0,0,1,2.91-1.9c4.55,6.65,13.71,10.24,21.49,6.51a1,1,0,0,0,.46-1.34c-4.09-7.53-13.51-10.49-21.15-7.73a13.63,13.63,0,0,1-1.55-8.19c.16-1.28-1.84-1.43-2-.15a15.44,15.44,0,0,0,1.69,9.14,16,16,0,0,0-4.15,3.05,1,1,0,0,0,.11,1.58c18.73,11.24,7.6,38.87-7.38,48.06-11.85,7.26-27.54,5.95-40.52,3s-25.26-8-38-11.68c-37.24-10.92-82.56-13.74-117.27,6.52a81,81,0,0,0-36.35,45.07c-7.59,23.49-4.2,48.87,1.89,72.28,6.72,25.78,17.09,50.36,25.11,75.72a426.09,426.09,0,0,1,15.62,69c-2-.51-4.1-1-6.19-1.36-20.37-3.63-47.84-.52-58.85,19.59-6.28,11.45-6.29,26.11-7,38.82-.78,12.91-.65,26.19,3.51,38.58,6.34,18.82,26.65,36.93,47.66,29.82,19.55-6.62,25.18-29.91,26.57-48.15,1.88-24.63.18-50-3.23-74.62,17.75,5,34,15.2,48.76,26.07,19.87,14.59,38,31.38,58.24,45.55a315.19,315.19,0,0,0,106.87,48.23c2.53.61,5.06,1.16,7.61,1.68A75.32,75.32,0,0,1,1322,810.38c-22.1,14.1-50.7,16.72-74.83,6.39-1.18-.51-1.82,1.39-.65,1.89.71.3,1.42.57,2.14.85-22-2.42-46.26-4.08-65.67,8.33-18,11.51-27.77,33.12-26.53,54.19,1.42,24.05,15.3,42.85,33.08,57.93,9.86,8.37,20.15,16.18,29,25.69a150.85,150.85,0,0,1,22.55,31.62c2.63,4.93,9.73,15.41,4.16,20.35-3.9,3.46-11.39,2-16.09,1.92-10.85-.28-19,5-27.53,11.11-20.84,14.8-42.37,30.37-56.11,52.42a86.65,86.65,0,0,0-12.31,31.52c-2,12.29-.19,24.23,3.84,35.92,4.49,13,10.44,25.42,13.8,38.85,3.29,13.18,5,26.7,6.26,40.2,5.33,55.76,12.83,130.83-41.73,166.3a1.06,1.06,0,0,0-.41,1.3,45.12,45.12,0,0,0-10.69,37.28,1,1,0,0,0,2-.37,43,43,0,0,1,11-36.48,1,1,0,0,0,.27-.8c40.8-27.52,47.3-80.48,44.87-125.84-1.47-27.19-2.95-55.46-9.57-82-3.25-13-8.88-25.07-13.37-37.68-4.79-13.45-6.63-27.16-3.31-41.2,6.17-26,25-46.08,45.45-62.2,10.11-8,20.8-16.77,32.19-22.82,5.81-3.09,11.33-3.7,17.75-3.47,4,.15,8.35.54,12.14-.87,9.27-3.45,4.64-13.52,1.55-19.81a152.79,152.79,0,0,0-19.55-30.21c-7.7-9.28-16.56-17.26-25.86-24.88-9.88-8.11-20-16.16-27.64-26.57-17-23.3-19.2-56.33-.12-79.14,19.87-23.74,52.39-21.37,80.15-18.22a.89.89,0,0,0,1-.78c38.57,12.51,83.26-6.09,99.28-44.22.36-.88.7-1.77,1-2.65,8.66,1.71,17.37,3.06,26.07,4.66,11.16,2.06,23,4.85,32.11,12,.18.14.33.29.51.43a1,1,0,0,0-1.06.41c-6.48,12,2.18,28,14.52,26.8.38,2.43.66,4.89.91,7.35,2.78,28.15,3.12,56.53,7.31,84.54,3.68,24.59,11.5,50.15,25.12,71.37-11.37,7.86-25.89,14.29-26.35,29.75-.27,9.09,5.53,17.16,12.51,22.43,8.81,6.66,19.61,8.49,30.42,8.8,21.3.61,54.45-4.19,64,21.35C1540,1065.34,1541.78,1064.45,1541.33,1063.26ZM1284,655.44h-.09c-2.49-3.34-3.9-8.56.65-11.07,7.51-4.14,13.45,8.09,5,10.54A19.49,19.49,0,0,1,1284,655.44ZM1349.11,344c-6.5,2.48-13.81-.54-17.68-5.94C1337.77,335.93,1345.33,338.11,1349.11,344ZM1129.7,667.57a420.91,420.91,0,0,1,2,45c-.11,11.43-.63,22.93-3.88,34-3,10.13-8.46,20.25-18.26,25.14-11.2,5.6-23.87,2.28-33.37-5.1-23.18-18-20-51.22-17.29-77.14,1.53-14.39,6.2-27,19.55-34.19,10.78-5.76,23.57-7.07,35.59-6a86.11,86.11,0,0,1,13.82,2.43Q1128.93,659.64,1129.7,667.57Zm305.1,122.74a5.2,5.2,0,0,1-.27,4.58,14.81,14.81,0,0,0-1.31-.93A23.58,23.58,0,0,0,1434.8,790.31Zm-9.56,1.5a22.93,22.93,0,0,1-.48-2.93,6.39,6.39,0,0,1,.75-.48c2.2-1.19,5.55-1.53,7.68-.1-.31,1.14-.67,2.19-.94,2.93a12.74,12.74,0,0,1-.81,1.77A13.07,13.07,0,0,0,1425.24,791.81Zm5.06,2.85a7.36,7.36,0,0,1-2.45,1.93,5.56,5.56,0,0,1-1.51-1.79,9.92,9.92,0,0,1-.53-1.14c.42,0,.76,0,1,.06A11.47,11.47,0,0,1,1430.3,794.66Zm1.15,1.82a10.37,10.37,0,0,0,.7-.84,10,10,0,0,1,1.07.77,4.68,4.68,0,0,1-2.91,1A8.65,8.65,0,0,0,1431.45,796.48Zm-6.16-14a4.56,4.56,0,0,1,4-4l4.48,4.64a8.32,8.32,0,0,1-.06,3.09,10.36,10.36,0,0,0-9.07.44A8.67,8.67,0,0,1,1425.29,782.45Zm-2.46,8.38c.08.43.17.87.27,1.3a10.39,10.39,0,0,0-1.17.35A9.08,9.08,0,0,1,1422.83,790.83Zm-.49,3.48a2,2,0,0,1,1.25-.53,12.73,12.73,0,0,0,1.71,3.35,6.85,6.85,0,0,1-.88-.08C1422.68,796.76,1421,796.05,1422.34,794.31Zm4.73,4.55a5.9,5.9,0,0,0,2.51,1,5.82,5.82,0,0,0,5.21-2,10.64,10.64,0,0,1,2.78,5.55,10,10,0,0,1-3,9,42.93,42.93,0,0,1-4-2.16,24.11,24.11,0,0,1-6.09-5.23,39.18,39.18,0,0,0-3.1-6.26,7.74,7.74,0,0,1-.14-.84A7.43,7.43,0,0,0,1427.07,798.86Zm5.8,14.89a15,15,0,0,1-5.46,2.14,64.14,64.14,0,0,0-1.45-6.49A33,33,0,0,0,1432.87,813.75ZM1414.44,812a17.26,17.26,0,0,1-3.58-13.78c.12-.7.4-2.85.93-3.34,1.93-1.74,3.88,1.34,4.65,2.71a10.47,10.47,0,0,1,.71,8.76,1,1,0,0,0,1.89.65,12.64,12.64,0,0,0,.27-7.46c.19.31.38.62.56.94A17.18,17.18,0,0,0,1422,805c0,.08.12.15.17.24a56.29,56.29,0,0,1,3,10.86C1421.17,816.34,1417.05,815,1414.44,812Zm23.92,112.52c-5.94-29-6.57-58.59-8.89-88-.47-5.95-.78-12.23-1.69-18.38a18.16,18.16,0,0,0,5.34-2.38,16.36,16.36,0,0,0,1.56-1.18c4.33,2,8.89,3.61,12.84,6,20.69,12.41,10.46,41.28,6.27,59.77-2.41,10.61-5.43,21.27-7,32-1.07,7.4-1.31,15.86,2.82,22.44,5.33,8.46,16.34,7.24,22.55,14.21,7.62,8.57-.16,21.47-7,27.83a49.13,49.13,0,0,1-4.64,3.78C1449.43,963.77,1442.47,944.51,1438.36,924.49Z"/><path class="cls-5" d="M1520,622.2c-8.61-21.78-29.61-37.84-53.06-39.8-15.4-1.28-34.17,3.62-46.24-8.94a17.59,17.59,0,0,1-3.66-5.6c.47-1.13.92-2.27,1.34-3.41l7.92-.34c3-.13,6.73.21,9.24-1.7,3.16-2.39,3.07-7,1.08-10.12-3.44-5.42-9.52-5.13-14.49-2.39a75.8,75.8,0,0,0,.82-14,1,1,0,0,0-1.43-1A22.8,22.8,0,0,0,1411,564.18a1,1,0,0,0,.83.56l2.08-.09a14.12,14.12,0,0,0,.92,3.41c-.42,1-.85,1.9-1.3,2.84-.56,1.16,1.33,1.8,1.89.66l.56-1.2c3.23,5.48,9.47,9.8,15,11.75,8.07,2.8,16.81,2.24,25.21,2.09,8.82-.16,17.33.49,25.68,3.54a62.23,62.23,0,0,1,36.33,35.34C1518.69,624.28,1520.49,623.4,1520,622.2Zm-100.79-67.66a76.69,76.69,0,0,1-2.3,8.09c-.3,0-.61.07-.92.09A11.63,11.63,0,0,1,1419.23,554.54Zm8.62-4.46a7.82,7.82,0,0,1,4.4.85,7.45,7.45,0,0,1,2.19,1.72c2.16,2.55,1.85,4.57-.31,6.93-2.66,2.91-4.81,2.41-8.63,2.58l-6.39.27a74.35,74.35,0,0,0,2.62-10.06A12.29,12.29,0,0,1,1427.85,550.08Zm-16.82,5.2a21,21,0,0,1,10-17.77,74.71,74.71,0,0,1-1.15,13.89,16,16,0,0,0-4.75,5.62,13.39,13.39,0,0,0-1.36,5.7,2.65,2.65,0,0,1-1.49-.58C1411.13,561.05,1411,556.75,1411,555.28Z"/><path class="cls-5" d="M1141.35,267.72c-11.85-5.51-26-3.46-37.55-9.75-6.94-3.8-10.66-10.58-11.58-18.28a53.17,53.17,0,0,1,0-11.21c.13-1.32.16-2.71.3-4,6.58,5.22,15.52,7.42,23.63,3.78a1,1,0,0,0,.46-1.33c-3.8-7.71-13.06-12.16-21.4-9.8a11.21,11.21,0,0,0,1.51-5.07c.36-6.83-5.6-12.23-12.08-12.64a1,1,0,0,0-1,.67c-2.11,7.43.22,14.85,4.88,20.46a10.6,10.6,0,0,1-4.83,1c-1.29,0-1.44,2-.15,2a13.53,13.53,0,0,0,6.36-1.45c.31.33.64.64,1,.95-.42,2.79-.71,5.61-.85,8.41-.3,5.86.12,11.94,2.55,17.35,4.77,10.57,15.66,13.87,26.22,15.65,12.65,2.13,24.72,3.85,33.48,14.18,16.16,19.06,12.73,48.84-5.7,64.91-10.51,9.18-25.18,14.56-39.92,15.37a40.68,40.68,0,0,0-8.33-23.35c-6.52-8.59-16.47-15.26-27.36-16.37a29.75,29.75,0,0,0-7.12.14c-1.94.28-6.75,1-8.21,2.51-2.43,2.54-1.42,8.94-.56,12,3,10.88,13.53,18.57,23.54,22.62A65.44,65.44,0,0,0,1105,360.7c.14,21-15.49,42-31.39,54.59-23.84,18.86-52.64,30-75.74,50a203.79,203.79,0,0,0-48.66,63A199.83,199.83,0,0,0,935,565.74c-3.4,12.72-7.21,27.37-4.67,40.52,4.5,23.29,30,28.43,50.13,28.09a163.27,163.27,0,0,0,16.68-1.21c1.28-.15.9-2.12-.37-2C974.2,633.85,937,634.33,932.1,605c-2.47-14.87,2.51-31.88,6.88-46a201.67,201.67,0,0,1,73.41-102.72c24.88-18,55.55-28.81,76.15-52.4,10.36-11.86,18.16-27.73,18.14-43.27,2.38-.13,4.74-.35,7-.67,22.68-3.15,45.08-17.74,49.87-41.33C1167.49,299.48,1160,276.37,1141.35,267.72Zm-27-40.87c-7.44,2.85-15.49.45-21.35-4.6a4.62,4.62,0,0,1,3.8-3.45A16.75,16.75,0,0,1,1114.32,226.85ZM1087.11,215c-1.45-2.71-5.27-15.54,1.15-12.83,8.23,3.47,7.66,13.14,2,17.35A24.92,24.92,0,0,1,1087.11,215ZM1071.72,350.7c-5.81-3.63-11.27-8.66-13.93-15.1-1.2-2.92-2.2-7.05-1.31-10.17,1.12-3.92,7.09-4.31,10.58-4.41,12.85-.4,24.86,8,31.59,18.48a39.1,39.1,0,0,1,6.27,19.46C1093.11,359.31,1081.34,356.7,1071.72,350.7Z"/><path class="cls-5" d="M832.42,1377.67c10.38-26.05,15.19-54.47,16.56-82.24,2.15-43.26-4.88-86.71-18.59-127.7-27.53-82.3-82.23-152.2-146.55-209.25-12.6-11.18-25.69-21.61-39-31.75,2.21-6.65,4.15-13.4,5.77-20.27a181.27,181.27,0,0,0,4.65-48.87c10.59-8.55,13.81-23.63,6.05-37.19a38.84,38.84,0,0,0-14.73-14.88,303.15,303.15,0,0,0-17.25-45.14C623.05,747,616.11,734,608.68,721.19A550.45,550.45,0,0,1,682.1,587l.6-.79c16.21.83,32.14.89,48.38-1.69a210.25,210.25,0,0,0,50.68-14.8c32.17-14,61.12-36.18,81.11-65.18,18.84-27.34,28.43-59.69,26.29-92.9a160.5,160.5,0,0,0-34.1-88.77q-3.39-4.26-7.09-8.23a175.22,175.22,0,0,0-9.33-25.45c-6.15-13.85-12.49-32.68,2.94-43a16.66,16.66,0,0,1,8.34-3c2.33-.12,8.72.65,7.67,4.18s-8.85,3.46-10.29.11c0-.84,0-1.67-.09-2.51-.06-1-1.69-1.08-1.93-.14a5.6,5.6,0,0,0,0,3.11c0,.19,0,.38,0,.56-5.68-1.6-9.53,2.92-11.72,8.1a20.23,20.23,0,0,0,2.53,20.18,1,1,0,0,0,1.58-.1,46.71,46.71,0,0,0,9.48-25.17c6.95,4.32,8.91,16.82,1.33,21.33-1.1.65-.23,2.46.87,1.8,8-4.74,7.42-16.78,1.26-22.93a10.59,10.59,0,0,0,5.17-.46c2.25-.83,4.3-2.74,3.85-5.37-.63-3.63-6-4.74-9.17-4.73-9.7,0-18.45,9-20.31,18.16-2.91,14.3,6,28.21,11.09,40.88a119.65,119.65,0,0,1,3.91,11.5c-18.52-18.79-42.05-31.85-68.44-36.25-11.2-1.86-23.17-2.76-33.18-8.62-8.9-5.22-14.43-14-16.48-24-3.76-18.32,1.45-39.56,8.13-56.68,2.94-7.51,10.5-21.44,20.8-17.66a10.68,10.68,0,0,1,4.49,3.39,1.08,1.08,0,0,0-.3.88q.43,5.94.86,11.89c-2,.21-4.27-1.7-5.3-3.41-1.38-2.31,2-7.11,2.89-7.7s.57-2.22-.62-1.88l-.25.08h0c-9.27,2.92-8.17,19.94,2.23,19.87a7.68,7.68,0,0,0,1.55-.16c.07,1,.13,1.89.2,2.83.1,1.28,2.06.9,2-.37-.08-1-.15-2.06-.22-3.1,6.52-3.24,6.51-15.4-.41-18.63-2-2.94-4.87-5.29-7.58-6C741.57,162.82,734,182.69,731,192.49c-4.87,15.77-9.07,33.3-6,49.83,3.17,17,15.24,27.62,31.76,31.62,9.57,2.31,19.44,3,29,5.31a114.16,114.16,0,0,1,23.81,8.7,127.86,127.86,0,0,1,36.74,27.75c12,48-4.66,104.67-48.91,130.24A107.31,107.31,0,0,1,748.75,460a69.64,69.64,0,0,0-2.41-13.59c-5.55-19.68-19.14-39.34-39.05-46.46-9.25-3.31-20-3.53-29.16.24-11.16,4.59-13.78,15.6-8.6,25.93,10.08,20.13,36.25,31.21,57.26,34.61A108,108,0,0,0,747,462a65.16,65.16,0,0,1-.23,11.26c-1.65,15.2-7.63,29.86-15.09,43.07-13.83,24.48-33,45.37-49.92,67.7-15.1-1.12-30.28-2.31-44.75,2.48a69.16,69.16,0,0,0-9.37,3.94c-.16-31.35-8.82-62.86-22-91C584,452.81,549.15,414,513.12,377.9,494.87,359.6,475.88,342,458,323.31s-34.79-39.9-40.72-65.63c-3-12.87-3.28-26.61.54-39.34,1.7-5.66,5-12.7,9.37-17.5a29.78,29.78,0,0,0-1.76,6.31c-2.4,14.77,6.72,29.26,20.25,34.86a1,1,0,0,0,1.16-.39c6.27-12.41,13.61-29.29,3.6-41.19a30.52,30.52,0,0,0,6.42-18.85,1,1,0,0,0-1.18-1.05,33.67,33.67,0,0,0-26,15.4c-3.9,2.53-7.24,6.73-9.67,11.5-17.32,34-.73,73,21.36,100.23,25.92,32,58.33,58.7,86.72,88.44,29.18,30.57,56.46,63.7,74.77,102.06,13.84,29,22.83,61.17,22.73,93.42-13.12,7.18-24,18.18-33.84,29.37-9.2,10.51-18.59,22.08-27.46,34.43a306,306,0,0,0-20.73-23.83c-27.73-28.6-68.1-50.07-107-29.93-14.64,7.57-26.27,20.75-28.72,37.4-3.26,22.12,8.92,44.16,23.89,59.56a104.52,104.52,0,0,0,93.64,29.95c-12.14,37-12.07,75.62,12.7,110.75q3.13,4.44,6.58,8.61a155,155,0,0,0-9,13.79c-19,32.81-27.33,71.05-28.09,109.12-1.82-1.67-3.67-3.33-5.56-4.93-19.09-16.15-40.56-26.34-64.41-33.27-10.56-3.07-16.9-8.54-16.13-20.24.56-8.68,2.94-17.38,4.35-26q4.64-28.17,7.19-56.63c1.61-18,3.48-36.59,2.71-54.71-.57-13.51-5-24.3-15.75-32.75-11.82-9.27-23.66-16.31-31.9-29.38a84,84,0,0,1-12.48-38,78.45,78.45,0,0,1,8-42c6.4-12.44,16.49-22.49,27-31.49,19.34-16.53,42.64-31,53.88-54.78s6-51.74-7.51-73.52a101.18,101.18,0,0,0-26.17-28.26c-11.77-8.56-25.68-15.1-31.22-29.54-7.76-20.23,2-43.61,8.58-62.78,5.89-17.08,14.23-37.45,8.9-55.72-16.54-56.67-107.29,6.28-121.16-53.07-1.92-8.21-1.4-19.39,5.29-25.48a8.35,8.35,0,0,1,4.22-1.8,7.33,7.33,0,0,0-1.88,3.83c-.36,2.77,1.36,5.71,3.83,6.09a1.08,1.08,0,0,0,.45.19c5.33.94,10.33-6,6.8-10.64a4.83,4.83,0,0,0-4.49-2c-7.7-3.53-14.48,7.08-16.07,13.06a37.22,37.22,0,0,0,4.58,28.55c11.18,18.11,33,19.12,52.13,18.07,21-1.16,48.34-5,61.11,16.25,9.25,15.36,3.32,35-1.78,50.72-10,30.66-29.13,70.44,3,94.63,10.49,7.9,21.6,14,30.64,23.8a97.43,97.43,0,0,1,19.87,32c9.12,24.49,5.6,50.31-11.08,70.61-15.06,18.32-36,30.5-52.79,47-15,14.75-24.8,32.77-26.19,54-1.35,20.77,4.93,42.2,18,58.49,6.83,8.5,15.42,14.14,24.18,20.43,5.8,4.17,11.16,8.84,14.28,15.42,3.56,7.51,3.93,16.13,3.83,24.29-.4,32-3.72,64.28-8.55,95.94q-1.77,11.55-3.87,23c-1.09,5.89-2.68,12.11-1.8,18.14,1.62,11.16,11.41,14.38,21,17,25.39,7,48.09,20.43,67,38.12a302.25,302.25,0,0,0,2.48,41.72c4.45,34.66,15.13,69.13,32.61,99.57A249.36,249.36,0,0,0,526,1168.69c-6.82,37.47.36,82.32,23.16,114.28a65.47,65.47,0,0,0-11.89,25.65c-3.84,18.06,1.27,36.16,11.61,50.83-16.19,9-27.54,26.82-32,44.68-6.59,26.09.35,53,11.28,77.29-9.88,37.95,8.14,82.8,44.82,99.64,1.17.53,1.81-1.36.65-1.9-34.8-16-52.52-58.3-44.19-95,2.36,5.07,4.88,10,7.48,14.8,6.24,11.5,14.68,24.53,28.07,28.3,9.23,2.59,21.2.09,26.9-8.14,8.5-12.25-2.33-28.75-10.27-38.36a79,79,0,0,0-40.06-25.69,1,1,0,0,0-1.16.39A75.38,75.38,0,0,0,529,1478.33a173.49,173.49,0,0,1-7.78-21.23c-7.14-24.78-7.17-51.88,6.76-74.36a60.2,60.2,0,0,1,22.29-21.44,78.68,78.68,0,0,0,26.48,22.54,66.71,66.71,0,0,0,41.61,7,1,1,0,0,0,.8-1.16c-3.42-23-26.87-37.25-49-36.3a47.08,47.08,0,0,0-19.31,5.09c-13.23-19-17.42-43.76-5.49-65.77a69,69,0,0,1,5.12-8c12.26,16.54,28.84,29.42,50,35.71,21.88,6.52,60.31.25,59.42-29.46-.43-14.39-11.86-26.17-24-32.37-12.88-6.54-28.06-7.57-42-4.39a78.59,78.59,0,0,0-43.16,27c-19.12-26.57-27.35-61.38-25.05-93.5,1.77-24.59,8.72-48.08,18.38-70.61a222,222,0,0,0,18.67,27A155.11,155.11,0,0,1,554,1170.3a1,1,0,0,0,.39,1.15c13.76,9.32,29.52,8.87,45.42,8.07q2.48,1.82,5,3.54a1,1,0,0,0,1.11-1.66c-1-.67-1.92-1.36-2.88-2,10.34-.52,20.69-.91,30.53,1.41,24.49,5.78,38.73,27.46,46.34,50,8.65,25.6,10.15,52.85,12.62,79.56l3.09,33.36c-23.85,14.6-39.77,42.6-28.63,70.51,6.8,17,21.56,29.66,38.56,36.85q4.08,44,8.15,88.07c.12,1.28,2.09.9,2-.37l-8-86.86a85.85,85.85,0,0,0,29.44,6c34.17.64,62.93-23.27,80.42-50.79a174.91,174.91,0,0,0,14.13-27.45c5.17,5,10,10.06,14.53,15.2A241.78,241.78,0,0,1,901.06,1506a233,233,0,0,1,4.09,60.2,1,1,0,0,0,2,.15C911.45,1496.52,883.39,1425.51,832.42,1377.67ZM836.89,274.4a18,18,0,0,1-2-15.37c1.53-4.81,5.17-10.14,10.41-8.43A45,45,0,0,1,836.89,274.4Zm-71.14-96.14c1.35,3.61.66,8.24-2.41,10.33-.05-.79-.11-1.58-.17-2.38C765.71,184.19,766.33,181.26,765.75,178.26Zm-2.27-.16c.31,1.59.46,3.93-.51,5.35l-.62-8.67A13.73,13.73,0,0,1,763.48,178.1Zm-2.07,11.35-.28.08c-6.38,1.37-9.22-7-6.84-12.24-1.07,5.49,2.12,11.93,7,10.05ZM719.79,457.29a90.47,90.47,0,0,1-34.73-16.47c-6.06-4.74-11.72-10.4-14.68-17.64-4.2-10.26,1-19.05,11.3-22.14,25.57-7.63,48.3,12.31,58.4,34.13a76.56,76.56,0,0,1,6.8,24.9A104.09,104.09,0,0,1,719.79,457.29Zm14,59.48c9.42-16.87,16-35.69,15.09-54.79a109.21,109.21,0,0,0,46.34-12.57c21-11.21,37-29.85,46.52-51.6A129.73,129.73,0,0,0,850.46,326c-.4-2.45-.9-4.86-1.46-7.25a155,155,0,0,1,26.79,43.7c13.17,32.41,15.93,69.62,4.59,103C868,501.77,841.78,532,809.67,552.57A206,206,0,0,1,702.35,585c-6,.08-12.09-.3-18.2-.74C701,562,720.12,541.22,733.78,516.77ZM438.86,188.83c2.94-2.28,12.15-8.17,15.64-5.85,3,2-3.58,13.61-5.14,15.73-.07.1-.16.19-.23.28-.35-.35-.72-.7-1.1-1-5-4.47-10-5.31-14.5-3.87A32.29,32.29,0,0,1,438.86,188.83Zm-7.64,8.53c4.81-3.12,10.52-3.16,16.65,3.2a28.47,28.47,0,0,1-14.91,9c-1.25.31-.89,2.28.36,2a30.84,30.84,0,0,0,15.81-9.5c4.6,5.8,5.11,13.27,3.43,20.45-1.21,5.16-5,19.4-11.93,14.68-10.42-7.07-16.26-21.07-12.37-33.32A29.28,29.28,0,0,1,431.22,197.36ZM307.66,217.1a4.73,4.73,0,0,1,1-.46c1.87.48,3.12,1.81,2.46,4.28-.22.82-1.22,2.73-1.94,3.06C304.63,226,305,218.64,307.66,217.1Zm4.39,6.89a7.91,7.91,0,0,0,1.28-3.1A3.68,3.68,0,0,1,312.05,224Zm218.4,1256a73.49,73.49,0,0,1,5.18-13.18c2.15-4.2,4-9.76,9.21-8.61,11.47,2.54,23,11.08,31,19.33,8.26,8.46,20.22,23.85,16.29,36.48-3.6,11.6-19,14.45-29,10.61-12.65-4.84-20.18-18.15-26.11-29.48-2.42-4.61-4.74-9.29-6.89-14C530.26,1480.69,530.35,1480.32,530.45,1480Zm54.21-123c9.47,2.46,18.55,7.64,24.74,15.3,2.94,3.63,7,9.55,7.16,14.41.1,2.72-.31,2.58-3.41,2.87a58.71,58.71,0,0,1-10.27,0c-20.45-1.66-38.87-13.21-50.76-29.22A46.54,46.54,0,0,1,584.66,1356.92Zm8.57-100.58c21.32-5.13,47,.29,59.55,19.68,6.74,10.39,6.84,23.83-1.94,33.11-6.83,7.23-17,10.62-26.72,11.63-20.62,2.14-41.15-7.5-56.44-20.77a109.88,109.88,0,0,1-15.89-17.16A76.2,76.2,0,0,1,593.23,1256.34Zm49.81-331c-19.14-14.51-38.7-28.44-57.91-43-13.77-10.45-26.85-22-37.67-34.94a136.74,136.74,0,0,1,13.72-15.76,129.22,129.22,0,0,1,24-18.61c.58,10.37,3,20.47,8.27,29.73,9.52,16.71,30.25,25,48.92,20.9a31.31,31.31,0,0,0,11-4.72A206.82,206.82,0,0,1,643,925.35ZM663.8,837.1a24.58,24.58,0,0,1-8.63,18.23,216.82,216.82,0,0,0-7.79-47C656.93,814.75,664.06,825.49,663.8,837.1Zm-14.93-16.26a182,182,0,0,1,4.52,35.91,28.14,28.14,0,0,1-6.77,3.61c-20.68,7.66-44.43-3.12-53.5-22.67a68.4,68.4,0,0,1-6-25.74c16.76-9.51,36.08-14.54,53.69-7.19a36.52,36.52,0,0,1,4.51,2.26Q647.28,813.88,648.87,820.84Zm-4.35-16.41c-16.4-8-37.91-4.52-54.64,4-1,.49-1.92,1-2.88,1.54-.51-20.13,5.77-41.06,11.57-59.49q4.27-13.59,9.25-26.95C622.8,749.07,636,776.13,644.52,804.43ZM627.68,592.7a62.48,62.48,0,0,1,7.07-3.21c12.38-4.71,25.49-4.72,38.53-3.88,2.35.15,4.7.3,7,.43-.83,1.1-1.65,2.2-2.47,3.31a551.63,551.63,0,0,0-49.34,81.29Q616.8,694.3,607.39,719q-8.37-14.24-17.51-28a143.11,143.11,0,0,0,31.31-54.63A153.11,153.11,0,0,0,627.68,592.7Zm-61.89,64.11c12.56-17.46,26.17-35.1,42-49.69a98.6,98.6,0,0,1,17.77-13.29,161.8,161.8,0,0,1-2.45,25.74,141,141,0,0,1-34.42,69.72c-7.33-10.93-15-21.8-23.11-32.24Zm-1.46,2.05c8.08,10.34,15.73,21,23,31.93a130.24,130.24,0,0,1-20.58,17.78,110.17,110.17,0,0,1-38.72,17.14C536.44,701.72,549.92,679.14,564.33,658.86ZM462,718c-32.26-15.83-69.81-60.57-45-97,9.36-13.74,25.48-21.86,41.59-24.5,18.86-3.08,37.29,2.15,53.49,11.86,17,10.19,31.05,24.59,43.62,39.73,2.49,3,4.93,6,7.35,9.12-15.07,21.24-28.52,44.69-36.84,68.91A99.33,99.33,0,0,1,462,718Zm57.45,61.54c-.79-17.58,2.28-34.81,7.82-51.39A100.36,100.36,0,0,0,543,723.55a125,125,0,0,0,45.52-31c2.09,3.16,4.17,6.32,6.2,9.51q6,9.48,11.83,19.25-7.31,19.41-13.13,39.34c-4.59,15.75-8.8,33.35-8.26,50.34-15.3,8.69-28.36,20.85-39,34.88C531,827.15,520.56,805.45,519.4,779.56Zm2.49,118A178.84,178.84,0,0,1,546,849.44c22.7,26.86,54,45.63,82,66.36q7.37,5.46,14.62,11.08-3.45,10.51-7.86,20.83c-18.47,43.37-46.65,82.63-70.13,123.84a191.93,191.93,0,0,0-55.09-99A251.72,251.72,0,0,1,521.89,897.53Zm21.8,214.92a253.9,253.9,0,0,1-24-58.81,292,292,0,0,1-10.25-78.27,189.7,189.7,0,0,1,53.69,98.73A428.15,428.15,0,0,0,543.69,1112.45Zm1.26,2.18c5.57-12.72,12-25.13,18.77-37.26a169.22,169.22,0,0,1-.1,61.69c-.14.75-.3,1.5-.46,2.25A223.77,223.77,0,0,1,545,1114.63Zm45.89,63.21c-7.79.16-15.78-.06-23.31-2.28-2.34-.69-9.07-2.36-10.35-4.65-1.39-2.46,1.55-6.91,2.46-9.47a152.79,152.79,0,0,0,4.53-15.51c3.61,4.35,7.38,8.57,11.36,12.62a194.68,194.68,0,0,0,21.72,19.06C595.11,1177.71,593,1177.8,590.84,1177.84ZM669.11,1414c-11.43-27.56,3.83-53.45,26.75-67.86l6.66,72q1.43,15.38,2.84,30.75C689.35,1441.91,675.7,1429.94,669.11,1414Zm85.8,40c-15.15,3.6-32.26,1.89-47.46-4.25L697.76,1345A75.86,75.86,0,0,1,729,1334.65c37.79-3.48,73.61,17.63,101,43.45C816.43,1411.59,791.6,1445.27,754.91,1454Zm75.89-77.84a218,218,0,0,0-16.93-14.1c-30.58-23-72-39.45-109.36-23.06a75.09,75.09,0,0,0-7,3.54q-1.62-17.61-3.26-35.23c-4-43.28-6.72-115.71-60-128.43-11.09-2.65-22.49-2-33.81-1.42a197.3,197.3,0,0,1-35.65-34.15,167.52,167.52,0,0,0,2.83-52.1c-.55-5.51-1.36-11-2.41-16.46,5.9-10.42,12-20.63,18.18-30.66,22.67-37.06,47-74.45,61-115.81,29.59,23,57.67,48.06,83.19,75.57,60.94,65.7,106.59,146.91,117.45,236.87,5.27,43.64,2.63,89.94-12.64,131.45Q831.6,1374.17,830.8,1376.16Z"/><path class="cls-5" d="M216,387.37a1,1,0,0,0-1.08-.54c-5.75,1.7-12,3.27-17.95,1.67a15.94,15.94,0,0,1-4.93-2.37c3.91-1.93,8.17-4.56,9.76-8.73a7.24,7.24,0,0,0-2.7-8.94c-6.58-4-15.1,1.4-14.65,8.87.82,13.4,16.71,15,26.72,12.6,1.62-.39,2.67-1,3.87-.05,1,.79,1.54,3.68,1.88,4.8a36.9,36.9,0,0,1,1.5,8.2,43.06,43.06,0,0,1-2.7,17.8c-4.05,11-12.25,20.84-23.08,25.7-13.53,6.07-28.23,1.87-41.6-2.47-12.57-4.09-25.71-8.75-39.1-6.31-13.7,2.5-25.21,11.54-34.67,21.3a161.31,161.31,0,0,0-42.61,84.35c-.22,1.27,1.78,1.41,2,.15a159.75,159.75,0,0,1,24.62-61.52c11.68-17.42,28.61-37.79,50.25-42.17,21-4.25,40.26,9.24,60.69,11.45,15.45,1.68,29.47-4.85,38.68-17.31C220.69,420.56,223.83,402.32,216,387.37ZM187,373.6c1.77-4.24,9-6.17,12.23-2.52,5.11,5.71-4.57,11.57-8.87,13.66C187.17,381.86,185.2,377.79,187,373.6Z"/><path class="cls-5" d="M308.47,601.53l-15.42.38a1,1,0,0,0-1,.67,21,21,0,0,0-.45,4.22,11.51,11.51,0,0,0-1.57.71,15.12,15.12,0,0,0-6.11,6.53c-7.69-1.12-16.19.28-22.92,2.12-14.32,3.92-27,11.89-35.61,24.15-8.05,11.53-12,25.37-14.4,39.08-2.71,15.49-3.38,31.22-5,46.85a340.7,340.7,0,0,1-10,54.7,258.87,258.87,0,0,1-12.9,36.46c-3.2.08-6.41.28-9.56.43a13.58,13.58,0,0,0-2.71-8.44c-3.51-4.74-10.21-6.17-14.13-1.07-3.66,4.77-1.32,10,4.36,11.3a36.86,36.86,0,0,0,10.15.39,45.51,45.51,0,0,1-4.42,12.33c-.58,1.14,1.07,2.26,1.66,1.11,2.13-4.13,4.4-8.88,5-13.59l2.68-.18c2-.11,4.09-.23,6.13-.31a217,217,0,0,1-10.53,20.32c-16.48-.85-31,15.5-29.76,31.83a29.81,29.81,0,0,0,1,5.52C117,902.68,82.77,920.41,46,921.83c-1.28,0-1.44,2-.15,2,35-1.36,67.85-17.1,93.48-40.61,1.44-1.33,2.85-2.69,4.24-4.06,5.08,14.35,20.56,24.32,35.76,23.83A43.84,43.84,0,0,0,201,896.12c-.34,8.09-1,16.19-2.11,24.2-2.32,17.18-6.71,35.6-18.11,49.19-17.09,20.36-45.88,18.39-69.87,15.55-13.5-1.59-27.71-3.93-40.46-8.81-9.75-3.73-23.19-12.1-19.71-24.42.35-1.23-1.54-1.89-1.89-.65-5.65,20,22.73,28.12,36.61,31.4a224.6,224.6,0,0,0,38.44,5.64c12.1.71,25,1.15,36.67-2.64,35.47-11.51,42-57.49,42.6-90.91a47.6,47.6,0,0,0,18.05-24.14c5.12-16.22,1.33-37.26-13.29-47.45-6.83-4.76-14.71-5.74-22.7-5.71a252.05,252.05,0,0,0,11-30,334.57,334.57,0,0,0,11.39-57.57c2-17.46,2.49-35.11,5.76-52.42,3.22-17,9.33-34.29,22.66-46.06,7.87-7,17.61-11.35,27.75-13.81,6-1.47,12.88-2.47,19.29-1.57a20.16,20.16,0,0,0-1.27,8.43c.61,9,6.8,16.55,12.28,23.23a1,1,0,0,0,1.19.23c9.43-4.41,9.94-17.24,4.41-25-.09-.11-.18-.22-.26-.34a19,19,0,0,0,2.36,1.51,1,1,0,0,0,1.21-.08c4.19-3.18,3.89-8.63,1.16-12.75a10.5,10.5,0,0,0-10.58-4.89c.33-1.66,1.51-2.42,4.18-2.49l10.6-.26C309.6,603.49,309.76,601.5,308.47,601.53ZM171.41,817.94a47.85,47.85,0,0,1-8.8-.1c-9.18-1.23-5.36-12.56,2.32-10.32C170.29,809.09,171.73,813.27,171.41,817.94Zm-26.85,45.34c2.55-10.17,11.12-19.21,21.57-21.23a21.61,21.61,0,0,1,4.35-.4,182.54,182.54,0,0,1-24.72,32.46l-1.35,1.37A26,26,0,0,1,144.56,863.28Zm56.62,27.65c0,.92-.07,1.85-.1,2.77a42.32,42.32,0,0,1-18.94,7.09c-15.41,1.71-32.44-8.5-37.12-23.11a186.91,186.91,0,0,0,27.63-35.9c8.85,1,16.61,7.19,21.34,14.75C200.4,866.77,201.45,879.13,201.18,890.93Zm-4.79-70.63c18.09,4,26.36,23.1,24.78,40.27-1.15,12.5-8,24.07-18,31.61,0-1.65,0-3.27,0-4.85-.07-18.72-6.8-43-28.2-47.23-.41-.08-.82-.14-1.24-.2a220.83,220.83,0,0,0,10.59-20.59A50,50,0,0,1,196.39,820.3Zm95.26-211.39a19.22,19.22,0,0,0,3.67,9.52,23.81,23.81,0,0,0-9.29-4A14.1,14.1,0,0,1,291.65,608.91ZM301,631.59c.59,4-.11,10.57-4.09,12.93-1.37.82-1,1-2.43.48-.91-.35-2-2.51-2.59-3.24a54,54,0,0,1-5.26-8c-2.66-5.22-3.92-11.08-1.87-16.73.09-.23.19-.46.28-.68a24,24,0,0,1,8.22,3.3A17,17,0,0,1,301,631.59ZM299,609a10.57,10.57,0,0,1,4.42,5c.69,1.61,1.77,7.08-.94,7.79-1.86.49-4.46-3-5.51-4.36a17.75,17.75,0,0,1-3.34-8.08c-.06-.39-.1-.76-.13-1.11A7.63,7.63,0,0,1,299,609Z"/><path class="cls-5" d="M336.73,1160.35a1,1,0,0,0-.66-.76c-11.52-5.08-23.89-3.32-34.53,2.28.29-.51.57-1,.83-1.62,3.75-8.56-3.66-16.59-12.31-12.79-7.67,3.38-11.05,11.49-7.92,18.7a42.28,42.28,0,0,1-8.65-3.75c-1.12-.61-2.24,1-1.11,1.67a40.51,40.51,0,0,0,10.88,4.14c.15.25.29.5.46.74a21.66,21.66,0,0,0,3.5,3.78c-1.23,1.3-2.4,2.65-3.49,4-16.12,20.54-15.67,49.25-15.32,74,0,1.28,2,1.44,2,.15-.37-25.36.71-57.84,18.19-77.08,7.16,5.32,17.51,7.1,25.89,6.18C325,1178.88,338,1172.7,336.73,1160.35Zm-53.91-1.26c1.2-7.42,14.84-16.69,18.24-5.84,1.79,5.71-3.14,11.54-8.34,13.13a17.18,17.18,0,0,1-8.27.33A10.84,10.84,0,0,1,282.82,1159.09Zm3.08,9.57a21.58,21.58,0,0,0,5.68,0c-1,.85-2,1.74-2.92,2.66A19.69,19.69,0,0,1,285.9,1168.66Zm45,2.44a25.21,25.21,0,0,1-10.55,5.73,38.13,38.13,0,0,1-22.43-.63,31.2,31.2,0,0,1-7.89-3.89,46.29,46.29,0,0,1,6-5.09,12.7,12.7,0,0,0,2.46-1.64,50.24,50.24,0,0,1,12.67-5.55,37.66,37.66,0,0,1,10.91-1.54c3.07,0,9.67.11,12.06,2.44C336.86,1163.56,332.81,1169.26,330.92,1171.1Z"/><path class="cls-5" d="M344.56,1442.88a103.62,103.62,0,0,1-65.5-59.27c-.49-1.19-2.29-.31-1.79.87a105.48,105.48,0,0,0,66.64,60.29C345.14,1445.14,345.79,1443.25,344.56,1442.88Z"/><path class="cls-5" d="M262.55,1425.69c-.58-.08-1.15-.14-1.72-.18a9.39,9.39,0,0,0-10-8c-7.9.22-6.86,8.82-2.25,11.15-10.07,6.61-13.2,22.06-2.43,31.76.95.85,2.46-.46,1.5-1.33a18.06,18.06,0,0,1,3.54-29.63,5.06,5.06,0,0,0,.87,1.35,4.52,4.52,0,0,0,5.48,1,9.2,9.2,0,0,1-4,3.14c-1.2.47-.32,2.26.88,1.8a10,10,0,0,0,6.2-6.88,24.06,24.06,0,0,0,2.49-2.4A1,1,0,0,0,262.55,1425.69Zm-10.61-6.17a8.58,8.58,0,0,1,5.71,3,7.1,7.1,0,0,1,1.44,3,20.28,20.28,0,0,0-3.62.37c-.1-1.22-.85-2.16-2.65-1.7a2.84,2.84,0,0,0-2.13,3.21C246.05,1427.44,246.13,1419,251.94,1419.52Zm5.44,10.26-2.67-1.15a4.25,4.25,0,0,0,.35-.63,18.08,18.08,0,0,1,4.16-.53,7.77,7.77,0,0,1-.24,1.43A3.44,3.44,0,0,1,257.38,1429.78Z"/><path class="cls-5" d="M249.47,1476.93c-11-16.19-33.3-15.31-47.81-26.66-20.64-16.16-4.67-46.2-10.69-67.69a1,1,0,0,0-1.17-.8c-15.25,1.81-31.26,10.69-46.8,7.52-9.55-2-20.82-12-19.8-22.1a7.42,7.42,0,0,0,3-7.73,1,1,0,0,0-1.82-.37,15,15,0,0,0-3.08,7.13c-3.85,2.15-10.14,1.3-11.93-3.32-1.56-4,0-8.4,2.6-11.6a13.89,13.89,0,0,1,4.55-3.79,9.44,9.44,0,0,1,3.25-1q5.34,4.51,1.81,3.13c-.6-1.14-2.4-.27-1.8.88,2.19,4.23,8.62-1.27,4.84-4.73-5.92-5.4-15,3.73-16.93,8.89-2.34,6.17,0,14.12,7.37,14.82a12.12,12.12,0,0,0,6.1-1.08c.07,8.53,7.38,16.88,15.07,20.68,16.53,8.16,36.12-2.88,53-5.19,5.26,21-9,48.28,8.44,65.53,14.13,14,38.66,11.77,50.3,28.84C248.7,1479.31,250.19,1478,249.47,1476.93Z"/></g></g></svg>